<?xml version="1.0" encoding="UTF-8"?>
<svg width="20px" height="20px" viewBox="0 0 20 20" version="1.1" xmlns="http://www.w3.org/2000/svg" xmlns:xlink="http://www.w3.org/1999/xlink">
    <title>存储</title>
    <defs>
        <filter id="filter-1">
            <feColorMatrix in="SourceGraphic" type="matrix" values="0 0 0 0 0.200000 0 0 0 0 0.200000 0 0 0 0 0.200000 0 0 0 1.000000 0"></feColorMatrix>
        </filter>
    </defs>
    <g id="二期" stroke="none" stroke-width="1" fill="none" fill-rule="evenodd">
        <g id="存储" transform="translate(-89.000000, -56.000000)" filter="url(#filter-1)">
            <g transform="translate(89.000000, 56.000000)">
                <path d="M4.07407407,1.48148148 L2.96296296,1.48148148 C2.14814815,1.48148148 1.48148148,2.14814815 1.48148148,2.96296296 L1.48148148,16.2962963 C1.48148148,17.1111111 2.14814815,17.7777778 2.96296296,17.7777778 L17.037037,17.7777778 C17.8518519,17.7777778 18.5185185,17.1111111 18.5185185,16.2962963 L18.5185185,2.96296296 C18.5185185,2.14814815 17.8518519,1.48148148 17.037037,1.48148148 L15.9259259,1.48148148 L15.9259259,8.14814815 C15.9259259,8.96296296 15.2592593,9.62962963 14.4444444,9.62962963 L5.55555556,9.62962963 C4.74074074,9.62962963 4.07407407,8.96296296 4.07407407,8.14814815 L4.07407407,1.48148148 Z M2.96296296,0 L17.037037,0 C18.6666667,0 20,1.33333333 20,2.96296296 L20,16.2962963 C20,17.9259259 18.6666667,19.2592593 17.037037,19.2592593 L2.96296296,19.2592593 C1.33333333,19.2592593 0,17.9259259 0,16.2962963 L0,2.96296296 C0,1.33333333 1.33333333,0 2.96296296,0 Z M5.55555556,8.14814815 L14.4444444,8.14814815 L14.4444444,1.48148148 L5.55555556,1.48148148 L5.55555556,8.14814815 Z M12.2222222,2.96296296 C12.6296296,2.96296296 12.962963,3.2962963 12.962963,3.7037037 L12.962963,5.92592593 C12.962963,6.33333333 12.6296296,6.66666667 12.2222222,6.66666667 C11.8148148,6.66666667 11.4814815,6.33333333 11.4814815,5.92592593 L11.4814815,3.7037037 C11.4814815,3.2962963 11.8148148,2.96296296 12.2222222,2.96296296 Z" id="形状" fill="#4A576A" fill-rule="nonzero"></path>
            </g>
        </g>
    </g>
</svg>