<?xml version="1.0" encoding="UTF-8"?>
<svg width="20px" height="20px" viewBox="0 0 20 20" version="1.1" xmlns="http://www.w3.org/2000/svg" xmlns:xlink="http://www.w3.org/1999/xlink">
    <title>关于</title>
    <defs>
        <filter id="filter-1">
            <feColorMatrix in="SourceGraphic" type="matrix" values="0 0 0 0 0.200000 0 0 0 0 0.200000 0 0 0 0 0.200000 0 0 0 1.000000 0"></feColorMatrix>
        </filter>
    </defs>
    <g id="二期" stroke="none" stroke-width="1" fill="none" fill-rule="evenodd">
        <g id="关于" transform="translate(-397.000000, -56.000000)" filter="url(#filter-1)">
            <g transform="translate(397.000000, 57.000000)">
                <path d="M10.9556907,9.46330184 C12.4271428,8.50686149 13.3185712,6.87420872 13.3275413,5.11925317 C13.2120467,2.25915731 10.8598204,-1.48158346e-15 7.99739357,-1.48158346e-15 C5.13496675,-1.48158346e-15 2.78274041,2.25915731 2.66724588,5.11925317 C2.67621592,6.87420872 3.56764433,8.50686149 5.03909644,9.46330184 C2.01724489,10.6364977 0.0191806781,13.5371358 1.48158346e-15,16.7786798 L1.48158346e-15,17.334718 C0.0410799084,17.7140145 0.361317696,18.0014415 0.742832319,18.0014415 C1.12434694,18.0014415 1.44458473,17.7140145 1.48566464,17.334718 L1.48566464,17.2652132 L1.48566464,16.7786798 C1.66481552,13.3105951 4.52902886,10.5905195 8.00173762,10.5905195 C11.4744464,10.5905195 14.3386597,13.3105951 14.5178106,16.7786798 C14.5266895,16.9465323 14.5266895,17.1147369 14.5178106,17.2825894 C14.5178106,17.6904452 14.8484431,18.0210777 15.2562989,18.0210777 C15.6641547,18.0210777 15.9947871,17.6904452 15.9947871,17.2825894 L15.9947871,16.7265512 C15.9543698,13.5040975 13.9600059,10.6294627 10.9556907,9.46330184 Z M8.00173762,8.87255215 C5.92029826,8.84858502 4.25006098,7.14607718 4.26596612,5.06456107 C4.28187127,2.98304497 5.97793019,1.30625945 8.05949213,1.31411564 C10.1410541,1.3220272 11.8243629,3.01161201 11.8245004,5.09318888 C11.8101505,7.19145503 10.1000307,8.88214163 8.00173762,8.87255215 L8.00173762,8.87255215 Z M19.9826238,15.4667771 C19.9640379,15.8705988 19.6310083,16.1883166 19.2267593,16.1878896 C19.0285958,16.1878896 18.8385486,16.109169 18.6984259,15.9690463 C18.5583031,15.8289235 18.479583,15.6388763 18.479583,15.4407128 C18.5505425,12.7348866 16.5387591,10.4249214 13.8488271,10.1235972 C13.4623029,10.0267251 13.1912293,9.67933037 13.1912293,9.28085178 C13.1912293,8.8823732 13.4623029,8.53497847 13.8488271,8.43810635 C15.1437113,8.22533054 16.1243886,7.1533872 16.2214028,5.84472879 C16.3184169,4.53607038 15.5065225,3.33123923 14.2571677,2.92985265 L14.0747176,2.87772407 C13.6620635,2.84413594 13.3547698,2.48238513 13.388358,2.06973102 C13.4219461,1.65707691 13.7836969,1.34978322 14.196351,1.38337134 L14.3353606,1.38337134 C16.0747114,1.73682072 17.4240947,3.11286556 17.7434493,4.8587981 C18.0628039,6.60473065 17.2878882,8.3693384 15.7862728,9.31560417 C18.3029447,10.2896569 19.9721511,12.6988208 20,15.3972723 L19.9826238,15.4667771 Z" id="形状" fill="#000000" fill-rule="nonzero"></path>
            </g>
        </g>
    </g>
</svg>