<?xml version="1.0" encoding="UTF-8"?>
<svg width="20px" height="20px" viewBox="0 0 20 20" version="1.1" xmlns="http://www.w3.org/2000/svg" xmlns:xlink="http://www.w3.org/1999/xlink">
    <title>机房</title>
    <defs>
        <filter id="filter-1">
            <feColorMatrix in="SourceGraphic" type="matrix" values="0 0 0 0 0.200000 0 0 0 0 0.200000 0 0 0 0 0.200000 0 0 0 1.000000 0"></feColorMatrix>
        </filter>
    </defs>
    <g id="二期" stroke="none" stroke-width="1" fill="none" fill-rule="evenodd">
        <g id="机房" transform="translate(-158.000000, -56.000000)" filter="url(#filter-1)">
            <g transform="translate(158.000000, 56.000000)">
                <path d="M12.4999731,1.25001343 L7.50002686,1.25001343 L7.50002686,18.7499866 L12.4999731,18.7499866 L12.4999731,1.25001343 Z M13.7499866,1.25001343 L13.7499866,18.7499866 L18.1250067,18.7499866 C18.4701779,18.7499866 18.7499866,18.470151 18.7499866,18.1249799 L18.7499866,1.87502014 C18.7499866,1.52983846 18.4701615,1.25001343 18.1249799,1.25001343 L13.7499866,1.25001343 L13.7499866,1.25001343 Z M6.25001343,1.25001343 L1.87499329,1.25001343 C1.5298221,1.25001343 1.25001343,1.52984895 1.25001343,1.87502014 L1.25001343,18.1249799 C1.25001343,18.4701615 1.52983846,18.7499866 1.87502014,18.7499866 L6.25001343,18.7499866 L6.25001343,1.25001343 L6.25001343,1.25001343 Z M18.7499866,1.52655517e-15 C19.0815129,1.52655517e-15 19.3994629,0.131688055 19.6338874,0.36611259 C19.8683119,0.600537126 20,0.918487071 20,1.25001343 L20,18.7499866 C20,19.0815129 19.8683119,19.3994629 19.6338874,19.6338874 C19.3994629,19.8683119 19.0815129,20 18.7499866,20 L1.25001343,20 C0.918487071,20 0.600537126,19.8683119 0.36611259,19.6338874 C0.131688055,19.3994629 1.52655517e-15,19.0815129 1.52655517e-15,18.7499866 L1.52655517e-15,1.25001343 C1.52655517e-15,0.918487071 0.131688055,0.600537126 0.36611259,0.36611259 C0.600537126,0.131688055 0.918487071,1.52655517e-15 1.25001343,1.52655517e-15 L18.7499866,1.52655517e-15 Z M3.75001343,4.37502014 C3.40483175,4.37502014 3.12500671,4.0951951 3.12500671,3.75001343 C3.12500671,3.40483175 3.40483175,3.12500671 3.75001343,3.12500671 C4.09358885,3.12725889 4.37092323,3.40641719 4.37092323,3.75 C4.37092323,4.09358281 4.09358885,4.37274111 3.75001343,4.37499329 L3.75001343,4.37502014 Z M3.75001343,6.25001343 C3.40483175,6.25001343 3.12500671,5.97018839 3.12500671,5.62500671 C3.12500671,5.27982504 3.40483175,5 3.75001343,5 C4.0951951,5 4.37502014,5.27982504 4.37502014,5.62500671 C4.37502014,5.97018839 4.0951951,6.25001343 3.75001343,6.25001343 L3.75001343,6.25001343 Z M3.75001343,8.12500671 C3.40483175,8.12500671 3.12500671,7.84518168 3.12500671,7.5 C3.12500671,7.15481832 3.40483175,6.87499329 3.75001343,6.87499329 C4.0951951,6.87499329 4.37502014,7.15481832 4.37502014,7.5 C4.37502014,7.84518168 4.0951951,8.12500671 3.75001343,8.12500671 L3.75001343,8.12500671 Z M3.12500671,10.6249799 L4.37499329,10.6249799 C4.72017496,10.6249799 5,10.9048049 5,11.2499866 C5,11.5951682 4.72017496,11.8749933 4.37499329,11.8749933 L3.12500671,11.8749933 C2.78143129,11.8727411 2.50409691,11.5935828 2.50409691,11.25 C2.50409691,10.9064172 2.78143129,10.6272589 3.12500671,10.6250067 L3.12500671,10.6249799 Z M3.12500671,15.6250067 L4.37499329,15.6250067 C4.71856871,15.6272589 4.99590309,15.9064172 4.99590309,16.25 C4.99590309,16.5935828 4.71856871,16.8727411 4.37499329,16.8749933 L3.12500671,16.8749933 C2.78143129,16.8727411 2.50409691,16.5935828 2.50409691,16.25 C2.50409691,15.9064172 2.78143129,15.6272589 3.12500671,15.6250067 L3.12500671,15.6250067 Z M3.12500671,13.1250067 L4.37499329,13.1250067 C4.71856871,13.1272589 4.99590309,13.4064172 4.99590309,13.75 C4.99590309,14.0935828 4.71856871,14.3727411 4.37499329,14.3749933 L3.12500671,14.3749933 C2.78143129,14.3727411 2.50409691,14.0935828 2.50409691,13.75 C2.50409691,13.4064172 2.78143129,13.1272589 3.12500671,13.1250067 L3.12500671,13.1250067 Z M9.37499329,10.6250067 L10.6250067,10.6250067 C10.9685821,10.6272589 11.2459165,10.9064172 11.2459165,11.25 C11.2459165,11.5935828 10.9685821,11.8727411 10.6250067,11.8749933 L9.37499329,11.8749933 C9.03141786,11.8727411 8.75408348,11.5935828 8.75408348,11.25 C8.75408348,10.9064172 9.03141786,10.6272589 9.37499329,10.6250067 L9.37499329,10.6250067 Z M9.37499329,15.6250067 L10.6250067,15.6250067 C10.9685821,15.6272589 11.2459165,15.9064172 11.2459165,16.25 C11.2459165,16.5935828 10.9685821,16.8727411 10.6250067,16.8749933 L9.37499329,16.8749933 C9.03141786,16.8727411 8.75408348,16.5935828 8.75408348,16.25 C8.75408348,15.9064172 9.03141786,15.6272589 9.37499329,15.6250067 L9.37499329,15.6250067 Z M9.37499329,13.1250067 L10.6250067,13.1250067 C10.9685821,13.1272589 11.2459165,13.4064172 11.2459165,13.75 C11.2459165,14.0935828 10.9685821,14.3727411 10.6250067,14.3749933 L9.37499329,14.3749933 C9.03141786,14.3727411 8.75408348,14.0935828 8.75408348,13.75 C8.75408348,13.4064172 9.03141786,13.1272589 9.37499329,13.1250067 L9.37499329,13.1250067 Z M15.6250067,10.6250067 L16.8749933,10.6250067 C17.2185687,10.6272589 17.4959031,10.9064172 17.4959031,11.25 C17.4959031,11.5935828 17.2185687,11.8727411 16.8749933,11.8749933 L15.6250067,11.8749933 C15.2814313,11.8727411 15.0040969,11.5935828 15.0040969,11.25 C15.0040969,10.9064172 15.2814313,10.6272589 15.6250067,10.6250067 L15.6250067,10.6250067 Z M15.6250067,15.6250067 L16.8749933,15.6250067 C17.2185687,15.6272589 17.4959031,15.9064172 17.4959031,16.25 C17.4959031,16.5935828 17.2185687,16.8727411 16.8749933,16.8749933 L15.6250067,16.8749933 C15.2814313,16.8727411 15.0040969,16.5935828 15.0040969,16.25 C15.0040969,15.9064172 15.2814313,15.6272589 15.6250067,15.6250067 L15.6250067,15.6250067 Z M15.6250067,13.1250067 L16.8749933,13.1250067 C17.2185687,13.1272589 17.4959031,13.4064172 17.4959031,13.75 C17.4959031,14.0935828 17.2185687,14.3727411 16.8749933,14.3749933 L15.6250067,14.3749933 C15.2814313,14.3727411 15.0040969,14.0935828 15.0040969,13.75 C15.0040969,13.4064172 15.2814313,13.1272589 15.6250067,13.1250067 L15.6250067,13.1250067 Z M10,4.37499329 C9.77573534,4.37646337 9.56787436,4.25766288 9.45531552,4.06368529 C9.34275667,3.86970771 9.34275667,3.63029229 9.45531552,3.43631471 C9.56787436,3.24233712 9.77573534,3.12353663 10,3.12500671 C10.3435754,3.12725889 10.6209098,3.40641719 10.6209098,3.75 C10.6209098,4.09358281 10.3435754,4.37274111 10,4.37499329 L10,4.37499329 Z M10,6.25001343 C9.65481832,6.25001343 9.37499329,5.97018839 9.37499329,5.62500671 C9.37499329,5.27982504 9.65481832,5 10,5 C10.3451817,5 10.6250067,5.27982504 10.6250067,5.62500671 C10.6250067,5.97018839 10.3451817,6.25001343 10,6.25001343 L10,6.25001343 Z M10,8.12500671 C9.65481832,8.12500671 9.37499329,7.84518168 9.37499329,7.5 C9.37499329,7.15481832 9.65481832,6.87499329 10,6.87499329 C10.3451817,6.87499329 10.6250067,7.15481832 10.6250067,7.5 C10.6250067,7.84518168 10.3451817,8.12500671 10,8.12500671 L10,8.12500671 Z M16.2499866,4.37499329 C16.0257219,4.37646337 15.8178609,4.25766288 15.7053021,4.06368529 C15.5927432,3.86970771 15.5927432,3.63029229 15.7053021,3.43631471 C15.8178609,3.24233712 16.0257219,3.12353663 16.2499866,3.12500671 C16.593562,3.12725889 16.8708964,3.40641719 16.8708964,3.75 C16.8708964,4.09358281 16.593562,4.37274111 16.2499866,4.37499329 L16.2499866,4.37499329 Z M16.2499866,6.25001343 C15.9048049,6.25001343 15.6249799,5.97018839 15.6249799,5.62500671 C15.6249799,5.27982504 15.9048049,5 16.2499866,5 C16.5951682,5 16.8749933,5.27982504 16.8749933,5.62500671 C16.8749933,5.97018839 16.5951682,6.25001343 16.2499866,6.25001343 L16.2499866,6.25001343 Z M16.2499866,8.12500671 C15.9048049,8.12500671 15.6249799,7.84518168 15.6249799,7.5 C15.6249799,7.15481832 15.9048049,6.87499329 16.2499866,6.87499329 C16.5951682,6.87499329 16.8749933,7.15481832 16.8749933,7.5 C16.8749933,7.84518168 16.5951682,8.12500671 16.2499866,8.12500671 Z" id="形状" fill="#21A3DD" fill-rule="nonzero"></path>
            </g>
        </g>
    </g>
</svg>