<?xml version="1.0" encoding="UTF-8"?>
<svg width="20px" height="20px" viewBox="0 0 20 20" version="1.1" xmlns="http://www.w3.org/2000/svg" xmlns:xlink="http://www.w3.org/1999/xlink">
    <title>计算</title>
    <defs>
        <filter id="filter-1">
            <feColorMatrix in="SourceGraphic" type="matrix" values="0 0 0 0 0.200000 0 0 0 0 0.200000 0 0 0 0 0.200000 0 0 0 1.000000 0"></feColorMatrix>
        </filter>
    </defs>
    <g id="二期" stroke="none" stroke-width="1" fill="none" fill-rule="evenodd">
        <g id="计算" transform="translate(-47.000000, -56.000000)" filter="url(#filter-1)">
            <g transform="translate(47.000000, 56.000000)">
                <path d="M13.2476876,5.67317575 L6.81397739,5.67317575 C6.22816033,5.67317575 5.76567318,6.14594039 5.76567318,6.72147996 L5.76567318,13.1449126 C5.76567318,13.7307297 6.23843782,14.1932169 6.81397739,14.1932169 L13.2374101,14.1932169 C13.8232271,14.1932169 14.2857143,13.7204522 14.2857143,13.1449126 L14.2857143,6.73175745 C14.2959918,6.14594039 13.8232271,5.67317575 13.2476876,5.67317575 L13.2476876,5.67317575 Z M13.0113052,12.9188078 L7.05035971,12.9188078 L7.05035971,6.95786228 L13.0113052,6.95786228 L13.0113052,12.9188078 Z" id="形状" fill="#000000" fill-rule="nonzero"></path>
                <path d="M20,6.85508736 L20,5.57040082 L18.3453237,5.57040082 L18.3453237,3.48406989 C18.3453237,2.46659815 17.5231244,1.64439877 16.5056526,1.64439877 L14.4707091,1.64439877 L14.4707091,2.921039e-15 L13.1860226,2.921039e-15 L13.1860226,1.64439877 L10.7399794,1.64439877 L10.7399794,2.921039e-15 L9.45529291,2.921039e-15 L9.45529291,1.64439877 L7.00924974,1.64439877 L7.00924974,2.921039e-15 L5.72456321,2.921039e-15 L5.72456321,1.64439877 L3.48406989,1.64439877 C2.46659815,1.64439877 1.64439877,2.46659815 1.64439877,3.48406989 L1.64439877,5.57040082 L0,5.57040082 L0,6.85508736 L1.64439877,6.85508736 L1.64439877,9.30113052 L0,9.30113052 L0,10.5858171 L1.64439877,10.5858171 L1.64439877,13.0421377 L0,13.0421377 L0,14.3268243 L1.64439877,14.3268243 L1.64439877,16.5159301 C1.64439877,17.5334018 2.46659815,18.3556012 3.48406989,18.3556012 L5.72456321,18.3556012 L5.72456321,20 L7.00924974,20 L7.00924974,18.3556012 L9.45529291,18.3556012 L9.45529291,20 L10.7399794,20 L10.7399794,18.3556012 L13.1860226,18.3556012 L13.1860226,20 L14.4707091,20 L14.4707091,18.3556012 L16.5056526,18.3556012 C17.5231244,18.3556012 18.3453237,17.5334018 18.3453237,16.5159301 L18.3453237,14.3268243 L20,14.3268243 L20,13.0421377 L18.3453237,13.0421377 L18.3453237,10.5960946 L20,10.5960946 L20,9.30113052 L18.3453237,9.30113052 L18.3453237,6.85508736 L20,6.85508736 Z M17.0606372,16.5056526 C17.0606372,16.8139774 16.8139774,17.0606372 16.5056526,17.0606372 L3.48406989,17.0606372 C3.17574512,17.0606372 2.9290853,16.8139774 2.9290853,16.5056526 L2.9290853,3.48406989 C2.9290853,3.17574512 3.17574512,2.9290853 3.48406989,2.9290853 L16.5056526,2.9290853 C16.8139774,2.9290853 17.0606372,3.17574512 17.0606372,3.48406989 L17.0606372,16.5056526 Z" id="形状" fill="#000000" fill-rule="nonzero"></path>
                <polygon id="路径" fill="#000000" fill-rule="nonzero" points="8.04727646 7.93422405 9.35251799 7.93422405 9.35251799 9.23946557 8.04727646 9.23946557"></polygon>
            </g>
        </g>
    </g>
</svg>