<?xml version="1.0" encoding="UTF-8"?>
<svg width="20px" height="20px" viewBox="0 0 20 20" version="1.1" xmlns="http://www.w3.org/2000/svg" xmlns:xlink="http://www.w3.org/1999/xlink">
    <title>技术</title>
    <defs>
        <filter id="filter-1">
            <feColorMatrix in="SourceGraphic" type="matrix" values="0 0 0 0 0.200000 0 0 0 0 0.200000 0 0 0 0 0.200000 0 0 0 1.000000 0"></feColorMatrix>
        </filter>
    </defs>
    <g id="二期" stroke="none" stroke-width="1" fill="none" fill-rule="evenodd">
        <g id="技术" transform="translate(-228.000000, -56.000000)" filter="url(#filter-1)">
            <g transform="translate(229.000000, 56.000000)">
                <path d="M4.83333333,10 L6.53333333,12.2666667 C6.75424722,12.5612185 6.69455185,12.9790861 6.39999999,13.2 C6.10544813,13.4209139 5.68758057,13.3612185 5.46666667,13.0666667 L3.46666667,10.4 C3.28888889,10.162963 3.28888889,9.83703704 3.46666667,9.6 L5.46666667,6.93333333 C5.6095729,6.74279168 5.84327647,6.6429635 6.0797435,6.6714531 C6.31621053,6.69994271 6.51951605,6.85242185 6.61307684,7.07145311 C6.70663763,7.29048437 6.67623958,7.54279169 6.53333333,7.73333333 L4.83333333,10 Z M12.8,12.2666667 C12.5790861,12.5612185 12.6387815,12.9790861 12.9333333,13.2 C13.2278852,13.4209139 13.6457528,13.3612185 13.8666667,13.0666667 L15.8666667,10.4 C16.0444444,10.162963 16.0444444,9.83703704 15.8666667,9.6 L13.8666667,6.93333333 C13.7237604,6.74279168 13.4900569,6.6429635 13.2535898,6.67145311 C13.0171228,6.69994271 12.8138173,6.85242185 12.7202565,7.07145311 C12.6266957,7.29048437 12.6570938,7.54279169 12.8,7.73333333 L14.5,10 L12.8,12.2666667 Z M9.65066667,12.8113333 C9.56530826,13.1646006 9.21272777,13.3844095 8.85795737,13.3055312 C8.50318698,13.2266529 8.27696166,12.8781547 8.34933333,12.522 L9.68266667,6.522 C9.76802507,6.16873274 10.1206056,5.94892388 10.475376,6.02780214 C10.8301464,6.10668039 11.0563717,6.45517865 10.984,6.81133333 L9.65066667,12.8113333 Z" id="形状" fill="#000000" fill-rule="nonzero"></path>
                <path d="M16.22,14.748 C16.4979833,14.5064675 16.9191341,14.5360167 17.1606667,14.814 C17.4021992,15.0919833 17.37265,15.5131341 17.0946667,15.7546667 L12.5013333,19.8366667 C12.380179,19.9418905 12.225136,20 12.0646667,20 L2.06333333,20 C0.92,20 0,19.0546667 0,17.8973333 L0,2.10266667 C0,0.945333333 0.92,3.03164901e-15 2.06333333,3.03164901e-15 L15.27,3.03164901e-15 C16.4133333,3.03164901e-15 17.3333333,0.945333333 17.3333333,2.10266667 L17.3333333,4.91466667 C17.3333333,5.2828565 17.0348565,5.58133333 16.6666667,5.58133333 C16.2984768,5.58133333 16,5.2828565 16,4.91466667 L16,2.10266667 C16,1.67333333 15.6686667,1.33333333 15.27,1.33333333 L2.06333333,1.33333333 C1.66466667,1.33333333 1.33333333,1.67333333 1.33333333,2.10266667 L1.33333333,17.8973333 C1.33333333,18.3266667 1.66466667,18.6666667 2.06333333,18.6666667 L11.8153333,18.6666667 L16.2206667,14.748 L16.22,14.748 Z" id="路径" fill="#000000" fill-rule="nonzero"></path>
                <path d="M17.3333333,15.2333333 C17.3333333,15.6015232 17.0348565,15.9 16.6666667,15.9 C16.2984768,15.9 16,15.6015232 16,15.2333333 L16,13.3333333 C16,12.9651435 16.2984768,12.6666667 16.6666667,12.6666667 C17.0348565,12.6666667 17.3333333,12.9651435 17.3333333,13.3333333 L17.3333333,15.2333333 Z" id="路径" fill="#000000" fill-rule="nonzero"></path>
            </g>
        </g>
    </g>
</svg>