<?xml version="1.0" encoding="UTF-8"?>
<svg width="20px" height="20px" viewBox="0 0 20 20" version="1.1" xmlns="http://www.w3.org/2000/svg" xmlns:xlink="http://www.w3.org/1999/xlink">
    <title>客户</title>
    <defs>
        <filter id="filter-1">
            <feColorMatrix in="SourceGraphic" type="matrix" values="0 0 0 0 0.200000 0 0 0 0 0.200000 0 0 0 0 0.200000 0 0 0 1.000000 0"></feColorMatrix>
        </filter>
    </defs>
    <g id="二期" stroke="none" stroke-width="1" fill="none" fill-rule="evenodd">
        <g id="客户" transform="translate(-355.000000, -56.000000)" filter="url(#filter-1)">
            <g transform="translate(355.000000, 56.000000)">
                <path d="M9.1625,12.41125 C8.97916666,12.2633333 8.86875,12.0779167 8.86875,11.81875 C8.86875,11.41125 9.19875,11.0779167 9.60208334,11.0779167 C10.0058333,11.0779167 10.3354167,11.41125 10.3354167,11.81875 C10.3354167,12.0779167 10.2258333,12.2633333 10.0425,12.41125 L11.0325,15.93 C11.1058333,16.1891667 11.0325,16.4483333 10.8491667,16.6333333 L9.85916668,17.6333333 C9.79260532,17.7043422 9.69961936,17.7446306 9.60229168,17.7446306 C9.504964,17.7446306 9.41197804,17.7043422 9.34541668,17.6333333 L8.35541668,16.6333333 C8.17208334,16.4483333 8.09875002,16.1891667 8.17208334,15.93 L9.16208334,12.41125 L9.1625,12.41125 Z M6.37666668,9.25916666 C5.19708334,8.29666666 4.42291668,6.85208332 4.42291668,5.185 C4.42291668,2.33333334 6.745,0 9.58333334,0 C12.42125,0 14.74375,2.33333334 14.74375,5.185 C14.74375,6.815 13.9695833,8.29625 12.79,9.25916666 C16.4758333,10.3333333 19.1666667,13.7408333 19.1666667,17.7779167 C19.1666667,19 18.17125,20 16.955,20 L2.21166668,20 C0.995,20 3.46944695e-16,19 3.46944695e-16,17.7779167 C3.46944695e-16,13.7404167 2.69083334,10.3333333 6.37666668,9.25916666 Z M9.61833334,9.13333334 C11.8044605,9.13333334 13.5766667,7.36112714 13.5766667,5.175 C13.5766667,2.98887286 11.8044605,1.21666666 9.61833334,1.21666666 C7.4322062,1.21666666 5.66,2.98887286 5.66,5.175 C5.66,7.36112714 7.4322062,9.13333334 9.61833334,9.13333334 Z M17.1591667,18.75 C17.5758333,18.75 17.9166667,18.3916667 17.9166667,17.9541667 C17.9166667,13.58 14.5075,10 10.3408333,10 L8.82583334,10 C4.65916668,10 1.25,13.5795833 1.25,17.9541667 C1.25,18.3916667 1.59083334,18.75 2.0075,18.75 L17.1591667,18.75 Z" id="形状" fill="#000000" fill-rule="nonzero"></path>
            </g>
        </g>
    </g>
</svg>