<?xml version="1.0" encoding="UTF-8"?>
<svg width="20px" height="20px" viewBox="0 0 20 20" version="1.1" xmlns="http://www.w3.org/2000/svg" xmlns:xlink="http://www.w3.org/1999/xlink">
    <title>推荐</title>
    <defs>
        <filter id="filter-1">
            <feColorMatrix in="SourceGraphic" type="matrix" values="0 0 0 0 0.200000 0 0 0 0 0.200000 0 0 0 0 0.200000 0 0 0 1.000000 0"></feColorMatrix>
        </filter>
    </defs>
    <g id="二期" stroke="none" stroke-width="1" fill="none" fill-rule="evenodd">
        <g id="推荐" transform="translate(-442.000000, -56.000000)" filter="url(#filter-1)">
            <g transform="translate(442.000000, 56.000000)">
                <path d="M1.37249346,6.68521566 C0.602793604,6.68521566 0,7.34215034 0,8.12150593 L0,17.8751756 C0,18.6534966 0.600724519,19.3114658 1.3728383,19.3114658 L4.80752045,19.3114658 L4.80752045,7.37491087 L4.71648068,7.71803423 C4.91703904,7.37337936 5.12154715,7.03103809 5.32996457,6.69107807 C5.79959006,5.92236399 6.29049787,5.16685582 6.80211899,4.42542931 C7.10031769,3.99323156 7.41057247,3.56947735 7.73251782,3.1546659 C8.60325802,2.03942874 9.33502464,1.37939042 9.56021013,1.37939042 C11.1913393,1.37939042 11.5041161,2.08322438 11.0558142,3.8640174 C10.9689126,4.208865 10.8558026,4.57267923 10.6999315,5.02442959 C10.6388934,5.20030187 10.436123,5.77171435 10.4081904,5.85206384 C10.2988737,6.16587516 10.2281799,6.38657762 10.1771425,6.58210622 C10.1036899,6.86832973 10.0736882,7.09317038 10.105759,7.30973467 C10.1699007,7.74320811 10.5023338,8.06495093 10.9661538,8.06495093 L17.8141375,8.06495093 C18.464865,8.06495093 18.7817799,8.54980665 18.5476284,9.29778111 L16.3623291,16.2871524 C16.0823129,17.1823767 15.1236365,17.9320754 14.2987611,17.9320754 L4.11817009,17.9320754 L4.11817009,19.3114658 L14.2987611,19.3114658 C15.7440174,19.3114658 17.2237584,18.1545021 17.6789573,16.6989004 L19.8642565,9.70952915 C20.3649753,8.10771203 19.435611,6.68521566 17.8141375,6.68521566 L10.9661538,6.68521566 C11.221341,6.68521566 11.4389399,6.8955727 11.470321,7.10799882 C11.4720452,7.12075817 11.481701,7.04799533 11.5130821,6.92695384 C11.551705,6.77728997 11.6130879,6.58624441 11.7106798,6.30622814 C11.7365434,6.23174106 11.9403483,5.65791464 12.0038003,5.47445571 C12.1713962,4.98891028 12.2951965,4.5906113 12.393478,4.20093352 C13.0314461,1.66630364 12.2900238,1.38785934e-16 9.55986528,1.38785934e-16 C8.71154018,1.38785934e-16 7.81252247,0.810391866 6.64521332,2.30565109 C6.30726574,2.74093564 5.98160139,3.18561927 5.66860491,3.63917678 C5.14222096,4.40191612 4.63716851,5.17915872 4.15403424,5.97000172 C3.93843922,6.32158672 3.72691854,6.67565395 3.51951465,7.03213234 L3.42847488,7.19145194 L3.42847488,18.6217706 L4.11817009,17.9320754 L1.37318317,17.9320754 C1.39146009,17.9320754 1.37939042,8.12150593 1.37939042,8.12150593 C1.37939042,8.07874484 4.11817009,8.06460609 4.11817009,8.06460607 L4.11817009,6.68521566 L1.37249346,6.68521566 Z" id="路径" fill="#000000" fill-rule="nonzero"></path>
            </g>
        </g>
    </g>
</svg>