<?xml version="1.0" encoding="UTF-8"?>
<svg width="20px" height="20px" viewBox="0 0 20 20" version="1.1" xmlns="http://www.w3.org/2000/svg" xmlns:xlink="http://www.w3.org/1999/xlink">
    <title>网络</title>
    <defs>
        <filter id="filter-1">
            <feColorMatrix in="SourceGraphic" type="matrix" values="0 0 0 0 0.200000 0 0 0 0 0.200000 0 0 0 0 0.200000 0 0 0 1.000000 0"></feColorMatrix>
        </filter>
    </defs>
    <g id="二期" stroke="none" stroke-width="1" fill="none" fill-rule="evenodd">
        <g id="网络" transform="translate(-126.000000, -56.000000)" filter="url(#filter-1)">
            <g transform="translate(126.000000, 56.000000)">
                <path d="M10,0 C4.48148148,0 0,4.48148148 0,10 C0,15.5185185 4.48148148,20 10,20 C15.5185185,20 20,15.5185185 20,10 C20,4.48148148 15.5185185,0 10,0 Z M18.4814815,9.25925926 L15.8888889,9.25925926 C15.7777778,6.51851852 15.037037,4.11111111 13.8888889,2.44444444 C16.4444444,3.74074074 18.2222222,6.2962963 18.4814815,9.25925926 Z M9.25925926,1.59259259 L9.25925926,9.25925926 L5.59259259,9.25925926 C5.74074074,5.44444444 7.2962963,2.25925926 9.25925926,1.59259259 Z M9.25925926,10.7407407 L9.25925926,18.4074074 C7.2962963,17.7407407 5.74074074,14.5555556 5.59259259,10.7407407 L9.25925926,10.7407407 Z M10.7407407,18.4074074 L10.7407407,10.7407407 L14.4074074,10.7407407 C14.2592593,14.5555556 12.7037037,17.7407407 10.7407407,18.4074074 Z M10.7407407,9.25925926 L10.7407407,1.59259259 C12.7037037,2.25925926 14.2592593,5.44444444 14.4074074,9.25925926 L10.7407407,9.25925926 Z M6.07407407,2.44444444 C4.92592593,4.11111111 4.18518519,6.51851852 4.07407407,9.25925926 L1.48148148,9.25925926 C1.77777778,6.2962963 3.55555556,3.74074074 6.07407407,2.44444444 Z M1.51851852,10.7407407 L4.11111111,10.7407407 C4.22222222,13.4814815 4.96296296,15.8888889 6.11111111,17.5555556 C3.55555556,16.2592593 1.77777778,13.7037037 1.51851852,10.7407407 Z M13.9259259,17.5555556 C15.0740741,15.8888889 15.8148148,13.4814815 15.9259259,10.7407407 L18.5185185,10.7407407 C18.2222222,13.7037037 16.4444444,16.2592593 13.9259259,17.5555556 Z" id="形状" fill="#4A576A" fill-rule="nonzero"></path>
            </g>
        </g>
    </g>
</svg>