<?xml version="1.0" encoding="UTF-8"?>
<svg width="20px" height="20px" viewBox="0 0 20 20" version="1.1" xmlns="http://www.w3.org/2000/svg" xmlns:xlink="http://www.w3.org/1999/xlink">
    <title>文档</title>
    <defs>
        <filter id="filter-1">
            <feColorMatrix in="SourceGraphic" type="matrix" values="0 0 0 0 0.200000 0 0 0 0 0.200000 0 0 0 0 0.200000 0 0 0 1.000000 0"></feColorMatrix>
        </filter>
    </defs>
    <g id="二期" stroke="none" stroke-width="1" fill="none" fill-rule="evenodd">
        <g id="文档" transform="translate(-314.000000, -56.000000)" filter="url(#filter-1)">
            <g transform="translate(314.000000, 58.000000)">
                <path d="M11.5481052,3.03746687 L17.7362275,3.03746687 C18.1635271,3.03746687 18.5099219,2.69107209 18.5099219,2.26377248 C18.5099219,1.83647286 18.1635271,1.49007809 17.7362275,1.49007809 L11.5481052,1.49007809 C11.2716908,1.49007809 11.0162733,1.63754339 10.8780661,1.87692527 C10.739859,2.11630716 10.739859,2.4112378 10.8780661,2.65061968 C11.0162733,2.89000156 11.2716908,3.03746687 11.5481052,3.03746687 L11.5481052,3.03746687 Z" id="路径" fill="#000000" fill-rule="nonzero"></path>
                <path d="M17.7362275,3.86847195 L9.72849058,3.86847195 C9.58527814,3.40497474 9.46005609,2.93610898 9.35310552,2.46292714 C8.95766172,0.823841249 8.75993982,0 7.96905222,0 L2.26233971,0 C1.01439931,0 0,1.18919693 0,2.65205244 L0,14.2560355 C0,15.718891 1.01439931,16.908088 2.26233971,16.908088 L17.7362275,16.908088 C18.9841679,16.908088 20,15.718891 20,14.2546028 L20,6.51765886 C20,5.05766889 18.9841679,3.86847195 17.7362275,3.86847195 L17.7362275,3.86847195 Z M18.5672326,14.2560355 C18.5672326,14.9165413 18.1861165,15.4767533 17.7362275,15.4767533 L2.26233971,15.4767533 C1.81245075,15.4753206 1.43276739,14.9165413 1.43276739,14.2560355 L1.43276739,2.65205244 C1.43276739,1.99154667 1.81245075,1.43276739 2.26233971,1.43276739 L7.5965327,1.43276739 C7.71115409,1.76946773 7.8558636,2.3683645 7.95902285,2.79819471 C8.36019772,4.46450319 8.56221792,5.30123934 9.36170213,5.30123934 L17.7347948,5.30123934 C18.1846837,5.30123934 18.5657998,5.85858586 18.5657998,6.51909163 L18.5657998,14.2560355 L18.5672326,14.2560355 Z" id="形状" fill="#000000" fill-rule="nonzero"></path>
            </g>
        </g>
    </g>
</svg>