<?xml version="1.0" encoding="UTF-8"?>
<svg width="20px" height="20px" viewBox="0 0 20 20" version="1.1" xmlns="http://www.w3.org/2000/svg" xmlns:xlink="http://www.w3.org/1999/xlink">
    <title>招商</title>
    <defs>
        <filter id="filter-1">
            <feColorMatrix in="SourceGraphic" type="matrix" values="0 0 0 0 0.200000 0 0 0 0 0.200000 0 0 0 0 0.200000 0 0 0 1.000000 0"></feColorMatrix>
        </filter>
    </defs>
    <g id="二期" stroke="none" stroke-width="1" fill="none" fill-rule="evenodd">
        <g id="招商" transform="translate(-193.000000, -56.000000)" filter="url(#filter-1)">
            <g transform="translate(194.000000, 56.000000)">
                <path d="M1.11024615e-15,0.833350701 C1.11024615e-15,0.373103818 0.373103818,-1.11024615e-15 0.833350701,-1.11024615e-15 C1.29359758,-1.11024615e-15 1.6667014,0.373103818 1.6667014,0.833350701 L1.6667014,20 L1.11024615e-15,20 L1.11024615e-15,0.833350701 Z M3.33340278,2.64088836 C3.33340278,2.64088836 6.16971187,-0.220004583 10.5802204,2.26338049 C14.990729,4.74676557 17.9674577,1.96504094 17.9674577,1.96504094 L17.9674577,13.5723661 C17.9674577,13.5723661 15.0444801,16.3957583 10.4623013,13.8132045 C5.87970583,11.2306506 3.33298612,14.2215463 3.33298612,14.2215463 L3.33298612,2.64130503 L3.33340278,2.64088836 Z M9.76270339,3.71591075 C7.88558094,2.65880539 6.37513281,2.7179733 5.11343987,3.40757099 C5.07517289,3.4284777 5.03725036,3.4500088 4.9996875,3.47215568 L4.9996875,11.3489864 C6.83097565,10.814392 8.96560346,11.056897 11.280235,12.3615075 C13.2815267,13.489031 14.8911436,13.4502802 16.2153378,12.7594325 L16.3007563,12.7135982 L16.3007563,4.6800975 C14.336132,5.24677597 12.1065022,5.03552157 9.76228672,3.71549408 L9.76270339,3.71591075 Z" id="形状" fill="#000000" fill-rule="nonzero"></path>
            </g>
        </g>
    </g>
</svg>