<?xml version="1.0" encoding="UTF-8"?>
<svg width="20px" height="20px" viewBox="0 0 20 20" version="1.1" xmlns="http://www.w3.org/2000/svg" xmlns:xlink="http://www.w3.org/1999/xlink">
    <title>政务</title>
    <defs>
        <filter id="filter-1">
            <feColorMatrix in="SourceGraphic" type="matrix" values="0 0 0 0 0.200000 0 0 0 0 0.200000 0 0 0 0 0.200000 0 0 0 1.000000 0"></feColorMatrix>
        </filter>
    </defs>
    <g id="二期" stroke="none" stroke-width="1" fill="none" fill-rule="evenodd">
        <g id="政务" transform="translate(-271.000000, -55.000000)" filter="url(#filter-1)">
            <g transform="translate(271.000000, 56.000000)">
                <path d="M15.4927406,16.6676478 C15.561811,16.6679699 15.6301497,16.7019771 15.6936945,16.7676478 C15.6301497,16.7019771 15.561811,16.6679699 15.4927406,16.6676478 L15.4927406,16.6676478 Z M16.0667857,17.1829142 C16.0664635,17.2519846 16.0324564,17.3203234 15.9667857,17.3838681 C16.0987609,17.2554217 16.0987609,17.1104067 15.9667857,16.9819603 C16.0324564,17.0455051 16.0664635,17.1138438 16.0667857,17.1829142 L16.0667857,17.1829142 Z M15.4927406,17.7569594 C15.561811,17.7566372 15.6301497,17.72263 15.6936945,17.6569594 C15.6301497,17.72263 15.561811,17.7566372 15.4927406,17.7569594 L15.4927406,17.7569594 Z M4.15687824,17.7569594 C4.08780782,17.7566372 4.01946908,17.72263 3.95592431,17.6569594 C4.01946908,17.72263 4.08780782,17.7566372 4.15687824,17.7569594 L4.15687824,17.7569594 Z M3.95592431,16.7088691 C3.8329312,16.7610515 3.73501553,16.8589672 3.6828331,16.9819603 C3.73501553,16.8589672 3.8329312,16.7610515 3.95592431,16.7088691 L3.95592431,16.7088691 Z M4.15687824,16.6676478 C4.08780782,16.6679699 4.01946908,16.7019771 3.95592431,16.7676478 C4.01946908,16.7019771 4.08780782,16.6679699 4.15687824,16.6676478 L4.15687824,16.6676478 Z M3.6828331,17.3838681 C3.73501553,17.5068613 3.8329312,17.6047769 3.95592431,17.6569594 C3.8329312,17.6047769 3.73501553,17.5068613 3.6828331,17.3838681 L3.6828331,17.3838681 Z" id="形状" fill="#000000" fill-rule="nonzero"></path>
                <path d="M3.74203165,16.9819603 C3.60869832,17.1104067 3.60869832,17.2554217 3.74203165,17.3838681 C3.60869832,17.2554217 3.60869832,17.1104067 3.74203165,16.9819603 L3.74203165,16.9819603 Z" id="路径" fill="#000000" fill-rule="nonzero"></path>
                <path d="M19.2232698,8.24819363 C19.559857,8.249838 19.8588073,8.03346518 19.9624169,7.71321735 C20.0660265,7.39296952 19.9504691,7.04249127 19.6767043,6.84666882 L10.4534345,0.148204728 C10.1834386,-0.049401576 9.81656144,-0.049401576 9.54656551,0.148204728 L0.323295702,6.84666882 C0.0495308561,7.04249127 -0.0660264982,7.39296953 0.0375830973,7.71321736 C0.141192693,8.03346519 0.440143049,8.24983801 0.776730211,8.24819363 L2.2658503,8.24819363 L2.2658503,17.2808148 L0.529402306,17.2808148 C0.423281701,17.2836084 0.338716932,17.3704587 0.338753696,17.4766161 L0.338753696,18.7287136 C0.338753696,18.7806433 0.359382699,18.8304462 0.396102559,18.867166 C0.432822419,18.9038859 0.482625238,18.9245149 0.534554962,18.9245149 L19.4654451,18.9245149 C19.5716024,18.9245149 19.6584527,18.8399869 19.6612463,18.7338663 L19.6612463,17.4714634 C19.6585397,17.3673128 19.5747483,17.2835214 19.4705977,17.2808148 L17.7238444,17.2808148 L17.7238444,8.24819363 L19.2232698,8.24819363 Z M6.85687454,17.2808148 L4.00745098,17.2808148 L4.00745098,8.24819363 L6.83111121,8.24819363 L6.85687454,17.2808148 Z M11.4221355,17.2808148 L8.56755923,17.2808148 L8.56755923,8.24819363 L11.3912195,8.24819363 L11.4221355,17.2808148 Z M16.0131597,17.2808148 L13.1328201,17.2808148 L13.1328201,8.24819363 L15.9822437,8.24819363 L16.0131597,17.2808148 Z" id="形状" fill="#000000" fill-rule="nonzero"></path>
            </g>
        </g>
    </g>
</svg>