<?xml version="1.0" encoding="UTF-8"?>
<svg width="20px" height="20px" viewBox="0 0 20 20" version="1.1" xmlns="http://www.w3.org/2000/svg" xmlns:xlink="http://www.w3.org/1999/xlink">
    <title>资讯</title>
    <defs>
        <filter id="filter-1">
            <feColorMatrix in="SourceGraphic" type="matrix" values="0 0 0 0 0.200000 0 0 0 0 0.200000 0 0 0 0 0.200000 0 0 0 1.000000 0"></feColorMatrix>
        </filter>
    </defs>
    <g id="二期" stroke="none" stroke-width="1" fill="none" fill-rule="evenodd">
        <g id="资讯" transform="translate(-479.000000, -56.000000)" filter="url(#filter-1)">
            <g transform="translate(479.000000, 56.000000)">
                <path d="M18.125,0 L4.375,0 C3.33946609,0 2.5,0.839466094 2.5,1.875 L2.5,3.125 L1.875,3.125 C0.839466094,3.125 0,3.96446609 0,5 L0,17.5 C0,18.8807119 1.11928813,20 2.5,20 L17.5,20 C18.8807119,20 20,18.8807119 20,17.5 L20,1.875 C20,0.839466094 19.1605339,0 18.125,0 Z M18.75,17.5 C18.75,18.18875 18.18875,18.75 17.5,18.75 L2.5,18.75 C1.810625,18.75 1.25,18.18875 1.25,17.5 L1.25,5 C1.25,4.65482203 1.52982203,4.375 1.875,4.375 L2.5,4.375 L2.5,16.875 C2.5,17.220178 2.77982203,17.5 3.125,17.5 C3.47017797,17.5 3.75,17.220178 3.75,16.875 L3.75,1.875 C3.75,1.52982203 4.02982203,1.25 4.375,1.25 L18.125,1.25 C18.469375,1.25 18.75,1.53 18.75,1.875 L18.75,17.5 Z" id="形状" fill="#333333" fill-rule="nonzero"></path>
                <path d="M12.18625,8.128125 L17.18625,8.128125 C17.358839,8.128125 17.49875,7.98821398 17.49875,7.815625 C17.49875,7.64303602 17.358839,7.503125 17.18625,7.503125 L12.18625,7.503125 C12.013661,7.503125 11.87375,7.64303602 11.87375,7.815625 C11.87375,7.98821398 12.013661,8.128125 12.18625,8.128125 Z M12.18625,6.253125 L17.18625,6.253125 C17.358839,6.253125 17.49875,6.11321398 17.49875,5.940625 C17.49875,5.76803602 17.358839,5.628125 17.18625,5.628125 L12.18625,5.628125 C12.013661,5.628125 11.87375,5.76803602 11.87375,5.940625 C11.87375,6.11321398 12.013661,6.253125 12.18625,6.253125 Z M12.18625,4.378125 L17.18625,4.378125 C17.358839,4.378125 17.49875,4.23821398 17.49875,4.065625 C17.49875,3.89303602 17.358839,3.753125 17.18625,3.753125 L12.18625,3.753125 C12.013661,3.753125 11.87375,3.89303602 11.87375,4.065625 C11.87375,4.23821398 12.013661,4.378125 12.18625,4.378125 Z M10.3125,16.8775 L5.3125,16.8775 C5.13991102,16.8775 5,17.017411 5,17.19 C5,17.362589 5.13991102,17.5025 5.3125,17.5025 L10.3125,17.5025 C10.485089,17.5025 10.625,17.362589 10.625,17.19 C10.625,17.017411 10.485089,16.8775 10.3125,16.8775 Z M10.3125,15.0025 L5.3125,15.0025 C5.13991102,15.0025 5,15.142411 5,15.315 C5,15.487589 5.13991102,15.6275 5.3125,15.6275 L10.3125,15.6275 C10.485089,15.6275 10.625,15.487589 10.625,15.315 C10.625,15.142411 10.485089,15.0025 10.3125,15.0025 Z M10.3125,13.1275 L5.3125,13.1275 C5.13991102,13.1275 5,13.267411 5,13.44 C5,13.612589 5.13991102,13.7525 5.3125,13.7525 L10.3125,13.7525 C10.485089,13.7525 10.625,13.612589 10.625,13.44 C10.625,13.267411 10.485089,13.1275 10.3125,13.1275 Z M17.1875,16.8775 L12.1875,16.8775 C12.014911,16.8775 11.875,17.017411 11.875,17.19 C11.875,17.362589 12.014911,17.5025 12.1875,17.5025 L17.1875,17.5025 C17.360089,17.5025 17.5,17.362589 17.5,17.19 C17.5,17.017411 17.360089,16.8775 17.1875,16.8775 Z M17.1875,15.0025 L12.1875,15.0025 C12.014911,15.0025 11.875,15.142411 11.875,15.315 C11.875,15.487589 12.014911,15.6275 12.1875,15.6275 L17.1875,15.6275 C17.360089,15.6275 17.5,15.487589 17.5,15.315 C17.5,15.142411 17.360089,15.0025 17.1875,15.0025 Z M17.1875,13.1275 L12.1875,13.1275 C12.014911,13.1275 11.875,13.267411 11.875,13.44 C11.875,13.612589 12.014911,13.7525 12.1875,13.7525 L17.1875,13.7525 C17.360089,13.7525 17.5,13.612589 17.5,13.44 C17.5,13.267411 17.360089,13.1275 17.1875,13.1275 Z M17.1875,9.3775 L5.3125,9.3775 C5.13991102,9.3775 5.00000002,9.51741102 5.00000002,9.69 C5.00000002,9.86258898 5.13991102,10.0025 5.3125,10.0025 L17.1875,10.0025 C17.360089,10.0025 17.5,9.86258898 17.5,9.69 C17.5,9.51741102 17.360089,9.3775 17.1875,9.3775 L17.1875,9.3775 Z M17.1875,11.2525 L5.3125,11.2525 C5.13991102,11.2525 5,11.392411 5,11.565 C5,11.737589 5.13991102,11.8775 5.3125,11.8775 L17.1875,11.8775 C17.360089,11.8775 17.5,11.737589 17.5,11.565 C17.5,11.392411 17.360089,11.2525 17.1875,11.2525 Z M5.625,8.125 L10,8.125 C10.345178,8.125 10.625,7.84517797 10.625,7.5 L10.625,3.1275 C10.625,2.78232203 10.345178,2.5025 10,2.5025 L5.625,2.5025 C5.27982203,2.5025 5,2.78232203 5,3.1275 L5,7.5 C5,7.84517797 5.27982203,8.125 5.625,8.125 Z M6.25,3.75 L9.375,3.75 L9.375,6.875 L6.25,6.875 L6.25,3.75 Z" id="形状" fill="#333333" fill-rule="nonzero"></path>
            </g>
        </g>
    </g>
</svg>