<?xml version="1.0" encoding="UTF-8"?>
<svg width="80px" height="80px" viewBox="0 0 80 80" version="1.1" xmlns="http://www.w3.org/2000/svg" xmlns:xlink="http://www.w3.org/1999/xlink">
    <title>编组 3</title>
    <defs>
        <filter id="filter-1">
            <feColorMatrix in="SourceGraphic" type="matrix" values="0 0 0 0 1.000000 0 0 0 0 1.000000 0 0 0 0 1.000000 0 0 0 1.000000 0"></feColorMatrix>
        </filter>
    </defs>
    <g id="二期" stroke="none" stroke-width="1" fill="none" fill-rule="evenodd">
        <g id="四期-首页-推广" transform="translate(-1726.000000, -264.000000)">
            <g id="编组-3" transform="translate(1726.000000, 264.000000)">
                <rect id="矩形" fill="#005BA2" x="0" y="0" width="80" height="80" rx="10"></rect>
                <g filter="url(#filter-1)" id="kefu-2">
                    <g transform="translate(15.000000, 6.000000)">
                        <path d="M25,0 C15,0 6.45647321,6.875 3.75,16.4564732 C1.46205357,17.9129464 0,20.625 0,23.9508929 C0,28.7444196 2.91852679,32.7008929 7.70647321,32.7008929 C8.73883929,32.7064732 9.58147321,31.875 9.58147321,30.8426339 L9.58147321,17.2935268 C9.58147321,16.4620536 8.95647321,15.625 8.125,15.4185268 C11.0435268,8.54352679 17.5,3.75 25,3.75 C32.5,3.75 38.9564732,8.54352679 41.875,15.4185268 C41.0435268,15.625 40.4185268,16.25 40.4185268,17.2935268 L40.4185268,30.8314732 C40.4129464,31.8638393 41.2444196,32.7064732 42.2767857,32.7064732 L42.2935268,32.7064732 C42.7120536,32.7064732 43.125,32.7064732 43.5435268,32.4944196 C42.9241071,36.0323661 41.4620536,38.75 39.7935268,40.6194196 C38.7555804,41.8694196 37.5390625,42.8013393 37.0870536,43.1194196 C36.6350446,43.4430804 36.40625,43.671875 36.2555804,43.7444196 C36.1049107,43.8169643 35.7868304,43.9508929 35.3683036,43.9508929 L32.5055804,43.9508929 C31.8805804,41.8638393 29.5870536,40.4129464 26.8805804,40.4129464 C23.7555804,40.4129464 21.0435268,42.5 21.0435268,45.2064732 C21.0435268,47.9129464 23.5435268,50 26.8805804,50 C29.5870536,50 31.6741071,48.5435268 32.5055804,46.4620536 L36.25,46.4620536 C36.875,46.4620536 37.0814732,46.2555804 37.5,46.0435268 C37.9185268,45.8370536 38.3314732,45.625 38.75,45.2120536 C39.7879464,44.5870536 40.8370536,43.5435268 42.0870536,42.2935268 C44.1741071,39.7935268 46.0435268,36.25 46.4620536,31.4620536 C48.75,29.9944196 50,27.2823661 50,24.1573661 C50,20.8203125 48.5435268,18.1138393 46.25,16.6573661 C43.5435268,6.875 35,0 25,0 Z" id="路径" fill="#000000" fill-rule="nonzero"></path>
                    </g>
                </g>
                <text id="在线咨询" font-family="PingFangSC-Medium, PingFang SC" font-size="12" font-weight="400" fill="#FFFFFF">
                    <tspan x="16" y="73">在线咨询</tspan>
                </text>
            </g>
        </g>
    </g>
</svg>