<?xml version="1.0" encoding="UTF-8"?>
<svg width="86px" height="32px" viewBox="0 0 86 32" version="1.1" xmlns="http://www.w3.org/2000/svg" xmlns:xlink="http://www.w3.org/1999/xlink">
    <title>logo</title>
    <g id="二期" stroke="none" stroke-width="1" fill="none" fill-rule="evenodd">
        <g id="切图" transform="translate(-22.000000, -31.000000)">
            <g id="logo" transform="translate(22.000000, 31.000000)">
                <g id="编组" transform="translate(0.000000, 0.000000)">
                    <path d="M27.3891802,11.4351059 C29.2643219,12.4802668 29.9406025,14.847249 28.8954416,16.7223906 C27.8502807,18.5975323 25.4832985,19.2738129 23.6081568,18.228652 L14.1094883,12.9721073 C13.4024677,12.5724869 12.8491472,11.9884264 12.4495268,11.3121458 C12.1113865,10.6666052 11.9269463,10.0210646 11.9269463,9.34478402 C11.9269463,8.66850341 12.1113865,8.02296283 12.4495268,7.37742225 L12.4495268,7.37742225 C12.8184071,6.70114164 13.3717276,6.14782115 14.1094883,5.74820079 L23.6081568,0.491656062 C25.4832985,-0.553504877 27.8502807,0.122775731 28.8954416,1.99791742 C29.9406025,3.8730591 29.2643219,6.24004123 27.3891802,7.28520217 L23.6696369,9.34478402 L27.3891802,11.4351059 Z" id="路径" fill="#005BA2" fill-rule="nonzero"></path>
                    <path d="M28.9261816,1.99791742 C27.8810207,0.122775731 25.5140386,-0.553504877 23.6388969,0.491656062 L19.0893728,3.01233833 L14.1402283,5.74820079 C13.4024677,6.14782115 12.8491472,6.73188167 12.4802668,7.37742225 L12.4802668,7.37742225 C12.1421265,8.02296283 11.9576864,8.66850341 11.9576864,9.34478402 C11.9576864,10.0210646 12.1421265,10.6666052 12.4802668,11.3121458 C12.8491472,11.9884264 13.4024677,12.5724869 14.1402283,12.9721073 L19.2738129,15.8001898 C19.2430729,15.7694498 19.2430729,15.7387098 19.2123329,15.6772297 C18.9356726,15.1546492 18.7819725,14.6013287 18.7819725,14.0480082 C18.7819725,13.4946877 18.9356726,12.9413673 19.2123329,12.4187868 L19.2123329,12.4187868 C19.5197332,11.8654663 19.9808336,11.4043659 20.5648941,11.0662256 L23.6696369,9.34478402 L23.6696369,9.34478402 L27.3891802,7.28520217 C28.9569216,6.42448139 29.6639423,4.64155979 29.2950619,2.9815983 C29.2335819,2.643458 29.0798818,2.30531769 28.9261816,1.99791742 Z" id="路径" fill="#008CD3"></path>
                    <path d="M1.99791742,20.5648941 C0.122775731,19.5197332 -0.553504877,17.152751 0.491656062,15.2776094 C1.536817,13.4024677 3.90379913,12.7261871 5.77894081,13.771348 L15.2776094,19.0278927 C15.98463,19.4275131 16.5379505,20.0115736 16.9375708,20.6878542 C17.2757111,21.3333948 17.4601513,21.9789354 17.4601513,22.655216 C17.4601513,23.3314966 17.2757111,23.9770372 16.9375708,24.6225777 L16.9375708,24.6225777 C16.5686905,25.2988584 16.01537,25.8521789 15.2776094,26.2517992 L5.77894081,31.5083439 C3.90379913,32.5535049 1.536817,31.8772243 0.491656062,30.0020826 C-0.553504877,28.1269409 0.122775731,25.7599588 1.99791742,24.7147978 L5.71746076,22.655216 L1.99791742,20.5648941 Z" id="路径" fill="#005BA2" fill-rule="nonzero"></path>
                    <path d="M0.491656062,29.9713426 C1.536817,31.8464842 3.90379913,32.5227648 5.77894081,31.4776039 L10.3284649,28.9569216 L15.2776094,26.2210592 C16.01537,25.8214388 16.5686905,25.2373783 16.9375708,24.5918377 L16.9375708,24.5918377 C17.2757111,23.9462971 17.4601513,23.3007566 17.4601513,22.624476 C17.4601513,21.9481953 17.2757111,21.3026548 16.9375708,20.6571142 C16.5686905,19.9808336 16.01537,19.3967731 15.2776094,18.9971527 L10.1440247,16.1690702 C10.1747648,16.1998102 10.1747648,16.2305502 10.2055048,16.2920303 C10.482165,16.8146107 10.6358652,17.3679312 10.6358652,17.9212517 C10.6358652,18.4745722 10.482165,19.0278927 10.2055048,19.5504732 L10.2055048,19.5504732 C9.89810452,20.1037937 9.4370041,20.5648941 8.85294358,20.9030344 L5.74820079,22.624476 L5.74820079,22.624476 L2.02865744,24.6840578 C0.460916034,25.5447786 -0.246104601,27.3277002 0.122775731,28.9876617 C0.184255786,29.325802 0.307215896,29.6639423 0.491656062,29.9713426 Z" id="路径" fill="#008CD3"></path>
                </g>
                <path d="M51.7660221,5.77894081 L51.7660221,7.34668222 L48.3538791,7.34668222 L48.3538791,8.36110313 L46.7246576,8.36110313 L46.7246576,7.34668222 L43.0665943,7.34668222 L43.0665943,8.36110313 L41.4066328,8.36110313 L41.4066328,7.34668222 L37.9944898,7.34668222 L37.9944898,5.77894081 L41.4066328,5.77894081 L41.4066328,4.7645199 L43.0665943,4.7645199 L43.0665943,5.77894081 L46.7246576,5.77894081 L46.7246576,4.7645199 L48.3538791,4.7645199 L48.3538791,5.77894081 L51.7660221,5.77894081 L51.7660221,5.77894081 Z M42.3288337,8.63776338 L47.8927787,10.2362448 L47.3394582,11.9884264 L41.6832931,10.2055048 L42.3288337,8.63776338 L42.3288337,8.63776338 Z M49.9523605,11.1277056 L52.0119424,17.0297909 L50.2905008,17.7368116 L48.323139,11.6195461 L49.9523605,11.1277056 L49.9523605,11.1277056 Z M39.347051,11.3736258 L41.0070125,11.6502861 C40.7610923,13.8943081 40.1770317,15.9231499 39.2548309,17.7368116 L37.6256094,16.6609106 C38.4863302,15.0931692 39.0703907,13.3409876 39.347051,11.3736258 L39.347051,11.3736258 Z M48.7842395,16.5072105 C47.5546384,16.6609106 46.4172573,16.7531307 45.3720964,16.7531307 C44.8495159,16.7531307 44.3576755,16.7223906 43.9273151,16.6916506 L43.9273151,11.527326 L42.1751335,11.527326 L42.1751335,18.1671719 C43.1280744,18.3516121 44.2039753,18.4130922 45.3720964,18.4130922 C46.3865173,18.4130922 47.5546384,18.3516121 48.8764595,18.197912 L48.7842395,16.5072105 L48.7842395,16.5072105 Z M55.2089052,14.0480082 L54.6248447,12.5724869 C55.8851858,12.3880468 56.9610868,12.0499064 57.8832876,11.527326 L54.7785449,11.527326 L54.7785449,10.3284649 L58.5595682,10.3284649 L58.5595682,9.77514441 L55.8544458,9.77514441 L55.8544458,8.72998347 L58.5903083,8.72998347 L58.5903083,8.14592294 L56.4077663,8.14592294 L56.4077663,7.6540825 L55.0859451,7.6540825 L55.0859451,5.25636034 L60.9265504,5.25636034 L60.9265504,4.61081976 L62.6172519,4.61081976 L62.6172519,5.25636034 L68.3963771,5.25636034 L68.3963771,7.6540825 L67.1052959,7.6540825 L67.1052959,8.14592294 L64.922754,8.14592294 L64.922754,8.72998347 L67.6586164,8.72998347 L67.6586164,9.77514441 L64.922754,9.77514441 L64.922754,10.3284649 L68.7037774,10.3284649 L68.7037774,11.527326 L65.8142148,11.527326 L68.9189576,12.9106272 L68.0889768,14.3246685 L67.0130758,13.740608 L67.0130758,16.0768501 L65.3531144,16.0768501 L65.3531144,13.802088 L58.1292079,13.802088 L58.1292079,16.1383301 L56.4692464,16.1383301 L56.4692464,13.740608 C56.008146,13.8328281 55.6085256,13.9557882 55.2089052,14.0480082 L55.2089052,14.0480082 Z M66.7364156,6.48596145 L56.6844266,6.48596145 L56.6844266,7.100762 L58.5595682,7.100762 L58.5595682,6.73188167 L60.2195297,6.73188167 L60.2195297,7.100762 L63.2013124,7.100762 L63.2013124,6.73188167 L64.8612739,6.73188167 L64.8612739,7.100762 L66.7364156,7.100762 L66.7364156,6.48596145 L66.7364156,6.48596145 Z M63.2320524,8.17666297 L60.2502698,8.17666297 L60.2502698,8.76072349 L63.2320524,8.76072349 L63.2320524,8.17666297 L63.2320524,8.17666297 Z M60.2502698,10.3284649 L63.2320524,10.3284649 L63.2320524,9.77514441 L60.2502698,9.77514441 L60.2502698,10.3284649 L60.2502698,10.3284649 Z M58.9899286,12.4495268 L64.6768337,12.4495268 L63.5701928,11.8347263 L63.846853,11.527326 L60.0965696,11.527326 C59.8506494,11.8039862 59.4817691,12.1113865 58.9899286,12.4495268 L58.9899286,12.4495268 Z M60.8650703,14.2939285 C60.6806302,16.04611 59.1743688,16.9068308 56.2848062,16.9068308 C55.8544458,16.9068308 55.4548255,16.9068308 55.0244651,16.8760908 L55.5470455,18.5975323 C55.6700057,18.5975323 55.9159259,18.5975323 56.3155462,18.5975323 C58.1599479,18.5975323 59.6354692,18.228652 60.7113702,17.5216314 C61.7872712,16.8146107 62.3713317,15.7387098 62.4942918,14.2939285 L60.8650703,14.2939285 L60.8650703,14.2939285 Z M68.3963771,17.122011 L62.5865119,15.6157497 L62.0946714,16.8760908 L67.7508365,18.7204924 L68.3963771,17.122011 L68.3963771,17.122011 Z M84.7500718,5.28710037 L84.7500718,6.91632184 L72.4233207,6.91632184 L72.4233207,5.28710037 L84.7500718,5.28710037 L84.7500718,5.28710037 Z M85.5185725,17.4908913 L83.858611,18.7204924 C83.5204707,18.1671719 83.2745505,17.7675516 83.1208503,17.4908913 L71.7777801,18.2901321 L74.8825229,11.527326 L71.68556,11.527326 L71.68556,9.86736449 L85.4878325,9.86736449 L85.4878325,11.527326 L76.9421048,11.527326 L74.6058627,16.4149904 L78.5405862,16.1690702 L82.1986495,15.9231499 C81.7068091,15.0316891 81.2149686,14.1402283 80.8153483,13.2795076 L82.3523496,12.5110069 C82.78271,13.3409876 83.3052905,14.2017084 83.889351,15.1239092 C84.4734115,16.01537 85.026732,16.8146107 85.5185725,17.4908913 Z" id="形状" fill="#FFFFFF" fill-rule="nonzero"></path>
                <path d="M37.9637497,25.2066383 C38.24041,25.3603384 38.4863302,25.4832985 38.6707704,25.5755186 C38.8859506,25.6369987 39.0703907,25.6984787 39.2240909,25.6984787 C39.5007511,25.6984787 39.7159313,25.6369987 39.9003715,25.4832985 C40.0848116,25.3295984 40.1462917,25.1451582 40.1462917,24.929978 C40.1462917,24.7455379 40.0848116,24.5610977 39.9618515,24.4381376 C39.8388914,24.2844374 39.6237112,24.1614773 39.2855709,24.0077772 L38.9781707,23.8848171 C38.6400303,23.7311169 38.3941101,23.5466768 38.24041,23.3622366 C38.0867099,23.1470564 37.9944898,22.9318762 37.9944898,22.655216 C37.9944898,22.3170757 38.1174499,22.0711555 38.3633701,21.8559753 C38.6092903,21.6407951 38.9166906,21.548575 39.2855709,21.548575 C39.4700111,21.548575 39.6544513,21.579315 39.8388914,21.6407951 C40.0233316,21.7022751 40.1770317,21.7637552 40.3307319,21.8559753 L40.3307319,22.4092958 C40.1462917,22.2555956 39.9618515,22.1633755 39.7774114,22.1018955 C39.5929712,22.0404154 39.4392711,22.0096754 39.2548309,22.0096754 C39.0089107,22.0096754 38.8244705,22.0711555 38.7015104,22.1941156 C38.5478103,22.3170757 38.4863302,22.4707758 38.4863302,22.655216 C38.4863302,22.8396561 38.5478103,22.9933563 38.6707704,23.1163164 C38.7937305,23.2392765 39.0089107,23.3929766 39.316311,23.5159368 L39.6237112,23.6388969 C39.9618515,23.792597 40.2385118,23.9770372 40.3922119,24.1922174 C40.5766521,24.4073976 40.6688722,24.6840578 40.6688722,24.9607181 C40.6688722,25.3295984 40.5459121,25.6369987 40.2692518,25.8829189 C39.9925916,26.1288391 39.6544513,26.2517992 39.2548309,26.2517992 C39.0703907,26.2517992 38.8552105,26.2210592 38.6400303,26.1595791 C38.4248502,26.0980991 38.20967,26.005879 37.9944898,25.9136589 L37.9637497,25.2066383 L37.9637497,25.2066383 Z M42.4517938,22.2555956 C42.4517938,22.1633755 42.4825338,22.0711555 42.5440139,22.0096754 C42.6054939,21.9481953 42.697714,21.9174553 42.7899341,21.9174553 C42.8821542,21.9174553 42.9743742,21.9481953 43.0358543,22.0096754 C43.0973344,22.0711555 43.1280744,22.1633755 43.1280744,22.2555956 C43.1280744,22.3478157 43.0973344,22.4400358 43.0358543,22.5015158 C42.9743742,22.5629959 42.8821542,22.5937359 42.7899341,22.5937359 C42.697714,22.5937359 42.6054939,22.5629959 42.5440139,22.5015158 C42.4825338,22.4400358 42.4517938,22.3478157 42.4517938,22.2555956 L42.4517938,22.2555956 Z M43.0665943,26.005879 L42.5747539,26.005879 L42.5747539,23.2700165 L43.0665943,23.1470564 L43.0665943,26.005879 L43.0665943,26.005879 Z M45.5872766,26.005879 L45.0954361,26.005879 L45.0954361,23.2700165 L45.5872766,23.2700165 L45.5872766,23.823337 C45.7409767,23.6081568 45.9254169,23.4544567 46.1098571,23.3622366 C46.2942972,23.2700165 46.5094774,23.2085365 46.7246576,23.2085365 C47.0320579,23.2085365 47.2779781,23.3007566 47.4316782,23.4851967 C47.5853784,23.6696369 47.6775985,23.9462971 47.6775985,24.3151775 L47.6775985,26.005879 L47.185758,26.005879 L47.185758,24.3766575 C47.185758,24.1307373 47.124278,23.9155571 47.0320579,23.792597 C46.9398378,23.6696369 46.7861377,23.6081568 46.6016975,23.6081568 C46.2942972,23.6081568 46.048377,23.7003769 45.8639368,23.9155571 C45.6794967,24.1307373 45.5565366,24.3766575 45.5565366,24.7147978 L45.5565366,26.005879 L45.5872766,26.005879 Z M51.8582422,25.8214388 C51.7045421,25.9136589 51.5201019,25.975139 51.3664018,26.036619 C51.1819616,26.0980991 51.0282615,26.0980991 50.8438213,26.0980991 C50.4134609,26.0980991 50.0753206,25.975139 49.7986604,25.6984787 C49.5220001,25.4218185 49.39904,25.0836782 49.39904,24.6533178 C49.39904,24.1922174 49.5220001,23.823337 49.7986604,23.5466768 C50.0753206,23.2700165 50.444201,23.1163164 50.9053014,23.1163164 C51.0590015,23.1163164 51.2434417,23.1470564 51.3971418,23.1777965 C51.550842,23.2085365 51.7352821,23.2700165 51.8889823,23.3622366 L51.8275022,23.792597 C51.6738021,23.7003769 51.4893619,23.6388969 51.3664018,23.5774168 C51.2127016,23.5466768 51.0590015,23.5159368 50.9360414,23.5159368 C50.6286411,23.5159368 50.3827209,23.6081568 50.1675407,23.792597 C49.9831005,23.9770372 49.8908805,24.2536974 49.8908805,24.5610977 C49.8908805,24.899238 49.9831005,25.1758982 50.1675407,25.3603384 C50.3519809,25.5447786 50.5979011,25.6677387 50.9053014,25.6677387 C51.0590015,25.6677387 51.2434417,25.6369987 51.3971418,25.5755186 C51.581582,25.5140386 51.7352821,25.3910784 51.9197223,25.2681183 L51.8582422,25.8214388 L51.8582422,25.8214388 Z M55.7007457,24.3151775 C55.7007457,24.0692573 55.6085256,23.8540771 55.4548255,23.7003769 C55.3011253,23.5466768 55.1166852,23.4851967 54.8707649,23.4851967 C54.6248447,23.4851967 54.4096645,23.5774168 54.2252244,23.7311169 C54.0407842,23.8848171 53.9485641,24.0999973 53.8870841,24.3766575 L55.7007457,24.3151775 L55.7007457,24.3151775 Z M55.9774059,25.2373783 L55.9466659,25.7292187 C55.7929658,25.8521789 55.6085256,25.9443989 55.4240854,26.005879 C55.2396453,26.067359 55.0552051,26.0980991 54.8400249,26.0980991 C54.4404045,26.0980991 54.0715242,25.975139 53.825604,25.6984787 C53.5489437,25.4218185 53.4259836,25.0836782 53.4259836,24.6840578 C53.4259836,24.2229574 53.5796838,23.8540771 53.856344,23.5466768 C54.1330043,23.2392765 54.5018846,23.1163164 54.932245,23.1163164 C55.3011253,23.1163164 55.6085256,23.2392765 55.8237058,23.4544567 C56.038886,23.6696369 56.1618461,24.0077772 56.1618461,24.4073976 C56.1618461,24.4073976 56.1618461,24.4381376 56.1618461,24.4688776 C56.1618461,24.4996176 56.1618461,24.5303577 56.1618461,24.5303577 L56.100366,24.6533178 L53.9178241,24.7147978 C53.9485641,25.0221981 54.0407842,25.2681183 54.1944843,25.4525585 C54.3481845,25.6062586 54.5941047,25.6984787 54.8707649,25.6984787 C55.0552051,25.6984787 55.2396453,25.6677387 55.4240854,25.5755186 C55.5777856,25.5140386 55.7929658,25.3910784 55.9774059,25.2373783 L55.9774059,25.2373783 Z M58.4058681,26.005879 L57.9140277,26.005879 L57.9140277,23.2700165 L58.4058681,23.2700165 L58.4058681,23.7003769 C58.5595682,23.5159368 58.7440084,23.3929766 58.9284486,23.3314966 C59.1128887,23.2392765 59.2973289,23.2085365 59.5125091,23.2085365 L59.5125091,23.7003769 C59.1128887,23.7311169 58.8362285,23.823337 58.6517883,23.9770372 C58.4980882,24.1307373 58.4058681,24.3766575 58.4058681,24.7147978 L58.4058681,26.005879 L58.4058681,26.005879 Z M63.1398324,24.3151775 C63.1398324,24.0692573 63.0476123,23.8540771 62.8939121,23.7003769 C62.740212,23.5466768 62.5557718,23.4851967 62.3098516,23.4851967 C62.0639314,23.4851967 61.8487512,23.5774168 61.664311,23.7311169 C61.4798709,23.8848171 61.3876508,24.0999973 61.3261707,24.3766575 L63.1398324,24.3151775 L63.1398324,24.3151775 Z M63.4472326,25.2373783 L63.4164926,25.7292187 C63.2627925,25.8521789 63.0783523,25.9443989 62.8939121,26.005879 C62.709472,26.067359 62.5250318,26.0980991 62.3098516,26.0980991 C61.9102313,26.0980991 61.5413509,25.975139 61.2954307,25.6984787 C61.0187705,25.4218185 60.8958103,25.0836782 60.8958103,24.6840578 C60.8958103,24.2229574 61.0495105,23.8540771 61.3261707,23.5466768 C61.602831,23.2392765 61.9717113,23.1163164 62.4020717,23.1163164 C62.770952,23.1163164 63.0783523,23.2392765 63.2935325,23.4544567 C63.5087127,23.6696369 63.6316728,24.0077772 63.6316728,24.4073976 C63.6316728,24.4073976 63.6316728,24.4381376 63.6316728,24.4688776 C63.6316728,24.4996176 63.6316728,24.5303577 63.6316728,24.5303577 L63.5701928,24.6533178 L61.3876508,24.7147978 C61.4183908,25.0221981 61.5106109,25.2681183 61.664311,25.4525585 C61.8180112,25.6062586 62.0639314,25.6984787 62.3405916,25.6984787 C62.5250318,25.6984787 62.709472,25.6677387 62.8939121,25.5755186 C63.0476123,25.5140386 63.2320524,25.3910784 63.4472326,25.2373783 L63.4472326,25.2373783 Z M69.3493179,25.7292187 C69.1648778,25.8829189 68.9496976,25.975139 68.7345174,26.036619 C68.5193372,26.0980991 68.273417,26.1595791 68.0582368,26.1595791 C67.8123166,26.1595791 67.5663963,26.1288391 67.3204761,26.036619 C67.0745559,25.9443989 66.8901157,25.8214388 66.6749355,25.6677387 C66.3982753,25.4525585 66.1830951,25.1758982 66.060135,24.868498 C65.9064349,24.5610977 65.8449548,24.1922174 65.8449548,23.823337 C65.8449548,23.1470564 66.060135,22.5937359 66.4904954,22.1326355 C66.9208558,21.6715351 67.4434362,21.4563549 68.0889768,21.4563549 C68.304157,21.4563549 68.5500772,21.4870949 68.7652574,21.548575 C68.9804376,21.610055 69.1956178,21.7330152 69.380058,21.8559753 L69.3185779,22.4092958 C69.1033977,22.2555956 68.9189576,22.1326355 68.7345174,22.0404154 C68.5193372,21.9481953 68.334897,21.9174553 68.1197168,21.9174553 C67.6278764,21.9174553 67.228256,22.1018955 66.8901157,22.4400358 C66.5827155,22.8089161 66.3982753,23.2392765 66.3982753,23.792597 C66.3982753,24.3459175 66.5519754,24.7762779 66.8593757,25.1144182 C67.166776,25.4525585 67.5663963,25.6369987 68.0582368,25.6369987 C68.304157,25.6369987 68.5193372,25.6062586 68.7345174,25.5140386 C68.9496976,25.4218185 69.1648778,25.2681183 69.410798,25.0836782 L69.3493179,25.7292187 L69.3493179,25.7292187 Z M71.65482,26.005879 L71.1629796,26.005879 L71.1629796,21.6715351 L71.65482,21.548575 L71.65482,26.005879 L71.65482,26.005879 Z M73.9603221,24.6225777 C73.9603221,24.9607181 74.0525422,25.2373783 74.2369823,25.4525585 C74.4214225,25.6677387 74.6366027,25.7599588 74.944003,25.7599588 C75.2206632,25.7599588 75.4665834,25.6677387 75.6510236,25.4525585 C75.8354638,25.2373783 75.9276839,24.9607181 75.9276839,24.6225777 C75.9276839,24.2844374 75.8354638,24.0077772 75.6510236,23.792597 C75.4665834,23.5774168 75.2514033,23.4851967 74.944003,23.4851967 C74.6673427,23.4851967 74.4214225,23.5774168 74.2369823,23.792597 C74.0218021,24.0077772 73.9603221,24.2844374 73.9603221,24.6225777 L73.9603221,24.6225777 Z M73.4377416,24.6225777 C73.4377416,24.1922174 73.5607017,23.823337 73.837362,23.5466768 C74.1140222,23.2700165 74.4521625,23.1163164 74.8825229,23.1163164 C75.3128833,23.1163164 75.6510236,23.2700165 75.9276839,23.5466768 C76.2043441,23.823337 76.3273042,24.1922174 76.3273042,24.6225777 C76.3273042,25.0529381 76.2043441,25.4218185 75.9276839,25.6984787 C75.6510236,25.975139 75.3128833,26.1288391 74.8825229,26.1288391 C74.4521625,26.1288391 74.1140222,25.975139 73.837362,25.6984787 C73.5914418,25.4218185 73.4377416,25.0529381 73.4377416,24.6225777 L73.4377416,24.6225777 Z M78.1102258,23.2700165 L78.6020663,23.2700165 L78.6020663,24.9607181 C78.6020663,25.2066383 78.6635463,25.4218185 78.7557664,25.5140386 C78.8479865,25.6369987 79.0016866,25.6984787 79.1861268,25.6984787 C79.4935271,25.6984787 79.7087073,25.6062586 79.9238875,25.3910784 C80.1083276,25.1758982 80.2005477,24.929978 80.2005477,24.5918377 L80.2005477,23.2700165 L80.6923881,23.2700165 L80.6923881,26.005879 L80.2312877,26.1288391 L80.2005477,25.5140386 C80.0161075,25.7292187 79.8316674,25.8829189 79.6472272,25.975139 C79.462787,26.067359 79.2476068,26.1288391 79.0631667,26.1288391 C78.7557664,26.1288391 78.5098462,26.036619 78.356146,25.8521789 C78.2024459,25.6677387 78.1102258,25.3910784 78.1102258,25.0221981 L78.1102258,23.2700165 L78.1102258,23.2700165 Z M84.6578517,25.3910784 L84.6578517,23.761857 C84.5348916,23.7003769 84.4119315,23.6388969 84.2889714,23.6081568 C84.1660113,23.5774168 84.0430512,23.5466768 83.9508311,23.5466768 C83.6434308,23.5466768 83.3975106,23.6388969 83.2130704,23.8540771 C83.0286302,24.0692573 82.9364102,24.3459175 82.9364102,24.6840578 C82.9364102,24.9914581 83.0286302,25.2681183 83.1823304,25.4525585 C83.3360305,25.6369987 83.5512107,25.7599588 83.7971309,25.7599588 C83.9508311,25.7599588 84.1045312,25.7292187 84.2274913,25.6677387 C84.4119315,25.6062586 84.5348916,25.5140386 84.6578517,25.3910784 L84.6578517,25.3910784 Z M85.1496921,26.005879 L84.7193318,26.1288391 L84.6885917,25.7906988 C84.5348916,25.9136589 84.3811915,25.975139 84.2274913,26.036619 C84.0737912,26.0980991 83.920091,26.1288391 83.7356509,26.1288391 C83.3360305,26.1288391 83.0286302,26.005879 82.78271,25.7292187 C82.5367898,25.4525585 82.4138297,25.1144182 82.4138297,24.7147978 C82.4138297,24.2536974 82.5675298,23.8848171 82.8441901,23.6081568 C83.1208503,23.3007566 83.4897307,23.1777965 83.9508311,23.1777965 C84.0737912,23.1777965 84.1967513,23.2085365 84.3197114,23.2085365 C84.4426715,23.2392765 84.5656316,23.2700165 84.6578517,23.3314966 L84.6578517,21.6715351 L85.1496921,21.548575 L85.1496921,26.005879 Z" id="形状" fill="#FFFFFF" fill-rule="nonzero"></path>
            </g>
        </g>
    </g>
</svg>