<?xml version="1.0" encoding="UTF-8"?>
<svg width="50px" height="50px" viewBox="0 0 50 50" version="1.1" xmlns="http://www.w3.org/2000/svg" xmlns:xlink="http://www.w3.org/1999/xlink">
    <title>4</title>
    <g id="二期" stroke="none" stroke-width="1" fill="none" fill-rule="evenodd">
        <g id="产品切图" transform="translate(-371.000000, -313.000000)" fill-rule="nonzero">
            <g id="4" transform="translate(371.000000, 313.000000)">
                <g id="398964d864c439bb1279bb82efd5ec32" transform="translate(1.000000, 1.000000)">
                    <rect id="Rectangle-Copy" fill="#444444" opacity="0" x="0" y="0" width="48" height="48"></rect>
                    <g id="Group" transform="translate(0.000000, 2.000000)">
                        <path d="M9,38 L11,38 L11,42 L37,42 L37,36 L39,36 L39,44 L9,44 L9,38 Z M9,36 L11,36 L9,36 Z M39,6 L37,6 L37,2 L11,2 L11,8 L9,8 L9,0 L39,0 L39,6 Z M37,8 L39,8 L37,8 Z" id="Combined-Shape" fill="#334966"></path>
                        <path d="M0,8 L20,8 L20,36 L0,36 L0,8 Z M2,10 L2,34 L18,34 L18,10 L2,10 Z" id="Rectangle-24-Copy" fill="#334966"></path>
                        <path d="M28,8 L48,8 L48,36 L28,36 L28,8 Z M30,10 L30,34 L46,34 L46,10 L30,10 Z" id="Rectangle-24-Copy-2" fill="#334966"></path>
                        <rect id="Rectangle-38" fill="#00A4FF" x="4" y="12" width="12" height="8"></rect>
                        <rect id="Rectangle-38-Copy" fill="#00A4FF" x="32" y="12" width="12" height="8"></rect>
                        <rect id="Rectangle-38-Copy-2" fill="#00A4FF" x="4" y="22" width="12" height="2"></rect>
                        <rect id="Rectangle-38-Copy-5" fill="#00A4FF" x="32" y="22" width="12" height="2"></rect>
                        <rect id="Rectangle-38-Copy-3" fill="#00A4FF" x="4" y="26" width="12" height="2"></rect>
                        <rect id="Rectangle-38-Copy-6" fill="#00A4FF" x="32" y="26" width="12" height="2"></rect>
                        <rect id="Rectangle-38-Copy-4" fill="#00A4FF" x="4" y="30" width="12" height="2"></rect>
                        <rect id="Rectangle-38-Copy-7" fill="#00A4FF" x="32" y="30" width="12" height="2"></rect>
                    </g>
                </g>
            </g>
        </g>
    </g>
</svg>