<?xml version="1.0" encoding="UTF-8"?>
<svg width="48px" height="48px" viewBox="0 0 48 48" version="1.1" xmlns="http://www.w3.org/2000/svg" xmlns:xlink="http://www.w3.org/1999/xlink">
    <title>398964d864c439bb1279bb82efd5ec32</title>
    <g id="二期" stroke="none" stroke-width="1" fill="none" fill-rule="evenodd">
        <g id="首页切图" transform="translate(-92.000000, -92.000000)">
            <g id="398964d864c439bb1279bb82efd5ec32" transform="translate(92.000000, 92.000000)">
                <g id="1d53a9f9c8f447de8c0e7761cbbcb3f5" transform="translate(0.000000, 4.000000)">
                    <path d="M48,0 L48,14 L46,14 L46,2 L2,2 L2,38 L27.311625,38.0015197 C27.9242121,38.7323056 28.6120192,39.4031225 29.3666938,40.0013651 L0,40 L0,0 L48,0 Z" id="形状结合" fill="#334966" fill-rule="nonzero"></path>
                    <polygon id="路径" fill="#00A4FF" fill-rule="nonzero" points="42 12 42 14 28 14 28 12"></polygon>
                    <path d="M14.8180425,22.0009692 C17.5160352,22.0014309 19.5088887,22.591856 20.8654254,23.5488235 C22.3253363,24.5787161 23,26.0306256 23,27.4826632 L23,27.4826632 L23,28.9999476 L7,28.9991095 L7,27.4826632 C7,26.0417878 7.65212609,24.6083354 9.0468066,23.582469 C10.3461934,22.6266966 12.2525209,22.0282202 14.8180425,22.0009692 Z" id="路径" stroke="#00A4FF" stroke-width="2"></path>
                    <path d="M14.9258998,10.0006758 C16.0626607,10.0025708 17.0804566,10.4461438 17.8148857,11.1685284 C18.5502598,11.8918428 19,12.8934476 19,14 C19,15.0925765 18.5619653,16.0828512 17.8519045,16.8047547 C17.1423955,17.5260974 16.1613253,17.9796234 15.0740513,17.9993268 C13.9022463,17.9978092 12.897764,17.5546183 12.1715729,16.8284271 C11.4477153,16.1045695 11,15.1045695 11,14 C11,12.9074235 11.4380347,11.9171488 12.1480955,11.1952453 C12.8576045,10.4739026 13.8386747,10.0203766 14.9258998,10.0006758 Z" id="路径" stroke="#00A4FF" stroke-width="2" fill="#00A4FF" fill-rule="nonzero"></path>
                    <path d="M46,19 L46,31.4181787 C46,34.1741758 44.2904275,36.6410897 41.7099071,37.6087849 L38,39 L38,19 L46,19 Z" id="形状结合" fill="#00A4FF" fill-rule="nonzero"></path>
                    <path d="M47,19 L47,28.8983166 C47,30.790151 46.43225,32.5895662 45.4282925,34.0988145 C44.4243349,35.6080628 42.9841699,36.8271442 41.2393397,37.5583111 L41.2393397,37.5583111 L38,38.9157487 L34.7606603,37.5583111 C33.0158301,36.8271442 31.5756651,35.6080628 30.5717075,34.0988145 C29.56775,32.5895662 29,30.790151 29,28.8983166 L29,28.8983166 L29,19 L47,19 Z" id="矩形" stroke="#334966" stroke-width="2"></path>
                </g>
            </g>
        </g>
    </g>
</svg>