<?xml version="1.0" encoding="UTF-8"?>
<svg width="48px" height="48px" viewBox="0 0 48 48" version="1.1" xmlns="http://www.w3.org/2000/svg" xmlns:xlink="http://www.w3.org/1999/xlink">
    <title>编组 10</title>
    <g id="二期" stroke="none" stroke-width="1" fill="none" fill-rule="evenodd">
        <g id="首页切图" transform="translate(-25.000000, -92.000000)" fill-rule="nonzero">
            <g id="编组-10" transform="translate(25.000000, 92.000000)">
                <g id="2837d08d2f6d13c0cd5c8a5d1439e843" transform="translate(-0.000000, -0.000000)">
                    <path d="M2.98195092,30.5143379 L10.5649712,31.7781746 L4.43565203,37.9074937 C-2.24406117,28.5346761 -1.37946609,15.4383406 7.02943725,7.02943725 C15.4383406,-1.37946609 28.5346761,-2.24406117 37.9074937,4.43565203 L36.4714173,5.87172841 C27.9002243,-0.0392931243 16.0692873,0.818014345 8.44365081,8.44365081 C2.47093547,14.4163662 0.650368842,22.968896 2.98195092,30.5143379 Z M45.0180491,17.4856621 L37.4350288,16.2218254 L43.564348,10.0925063 C50.2440612,19.4653239 49.3794661,32.5616594 40.9705627,40.9705627 C32.5616594,49.3794661 19.4653239,50.2440612 10.0925063,43.564348 L11.5285827,42.1282716 C20.0997757,48.0392931 31.9307127,47.1819857 39.5563492,39.5563492 C45.5290645,33.5836338 47.3496312,25.031104 45.0180491,17.4856621 Z" id="Combined-Shape" fill="#334966"></path>
                    <path d="M18,32 C14.1340068,32 11,28.8659932 11,25 C11,21.1340068 14.1340068,18 18,18 C18.0965182,18 18.1925801,18.0019534 18.2881485,18.0058229 C19.1468327,15.1113422 21.8268511,13 25,13 C28.8659932,13 32,16.1340068 32,20 C32,20.0277177 31.9998389,20.0553978 31.9995176,20.0830394 C32.3248781,20.0284269 32.6591193,20 33,20 C36.3137085,20 39,22.6862915 39,26 C39,29.3137085 36.3137085,32 33,32 C32.6592878,32 32.3252085,31.9716012 32,31.9170416 L32,32 L18,32 Z" id="Combined-Shape-Copy" fill="#00A4FF"></path>
                </g>
            </g>
        </g>
    </g>
</svg>