<?xml version="1.0" encoding="UTF-8"?>
<svg width="48px" height="48px" viewBox="0 0 48 48" version="1.1" xmlns="http://www.w3.org/2000/svg" xmlns:xlink="http://www.w3.org/1999/xlink">
    <title>c80aed3d19a8d620fd4a383b0a69e8b8</title>
    <g id="二期" stroke="none" stroke-width="1" fill="none" fill-rule="evenodd">
        <g id="首页切图" transform="translate(-162.000000, -168.000000)">
            <g id="c80aed3d19a8d620fd4a383b0a69e8b8" transform="translate(162.000000, 168.000000)">
                <g id="398b4a45b5bd5b3a6571b894fa60f526" transform="translate(0.000000, 4.000000)">
                    <path d="M46,15.1653059 L46,2 L2,2 L2,38 L25.2747595,38 C26.0655407,38.7762863 26.9809091,39.4436627 28,39.971059 L28,40 L0,40 L0,0 L48,0 L48,15.4786541 C47.3274733,15.4032507 46.6601248,15.2985937 46,15.1653059 Z" id="Combined-Shape" fill="#334966" fill-rule="nonzero"></path>
                    <path d="M37,17.1272231 L36.3209987,17.480455 C33.4236099,18.9891856 30.2641388,19.9758848 27,20.3943087 L27,30.2645 C27,32.4847555 28.29649,34.5300905 30.3778634,35.5710644 L37,38.8819766 L43.622021,35.5711222 C45.70351,34.5300905 47,32.4847555 47,30.2645 L47,20.3943088 C43.7358635,19.9758861 40.5764194,18.9892008 37.6793488,17.4806359 L37,17.1272231 Z" id="Fill-6" stroke="#334966" stroke-width="2" fill="#00A4FF" fill-rule="nonzero"></path>
                    <polygon id="Fill-11" fill="#FFFFFF" fill-rule="nonzero" points="36.243 28.656 33.415 25.828 32 27.242 34.829 30.07 36.243 31.484 37.657 30.07 42.314 25.414 40.899 24"></polygon>
                    <path d="M37,17.1272231 L36.3209987,17.480455 C33.4236099,18.9891856 30.2641388,19.9758848 27,20.3943087 L27,30.2645 C27,32.4847555 28.29649,34.5300905 30.3778634,35.5710644 L37,38.8819766 L43.622021,35.5711222 C45.70351,34.5300905 47,32.4847555 47,30.2645 L47,20.3943088 C43.7358635,19.9758861 40.5764194,18.9892008 37.6793488,17.4806359 L37,17.1272231 Z" id="Fill-6" stroke="#334966" stroke-width="2"></path>
                    <rect id="Rectangle" fill="#334966" fill-rule="nonzero" x="0" y="8" width="48" height="2"></rect>
                    <rect id="Rectangle-2" fill="#334966" fill-rule="nonzero" x="38" y="4" width="2" height="2"></rect>
                    <rect id="Rectangle-2-Copy-2" fill="#334966" fill-rule="nonzero" x="34" y="4" width="2" height="2"></rect>
                    <rect id="Rectangle-2-Copy" fill="#334966" fill-rule="nonzero" x="42" y="4" width="2" height="2"></rect>
                    <rect id="Rectangle-4" fill="#00A4FF" fill-rule="nonzero" x="7" y="17" width="12" height="2"></rect>
                    <rect id="Rectangle-4-Copy" fill="#00A4FF" fill-rule="nonzero" x="7" y="23" width="12" height="2"></rect>
                    <rect id="Rectangle-4-Copy-2" fill="#00A4FF" fill-rule="nonzero" x="7" y="29" width="12" height="2"></rect>
                </g>
            </g>
        </g>
    </g>
</svg>