<?xml version="1.0" encoding="UTF-8"?>
<svg width="50px" height="50px" viewBox="0 0 50 50" version="1.1" xmlns="http://www.w3.org/2000/svg" xmlns:xlink="http://www.w3.org/1999/xlink">
    <title>3</title>
    <g id="二期" stroke="none" stroke-width="1" fill="none" fill-rule="evenodd">
        <g id="产品切图" transform="translate(-268.000000, -313.000000)">
            <g id="3" transform="translate(268.000000, 313.000000)">
                <g id="bb01904b05953f8aa89f0b3deb9695de" transform="translate(2.000000, 2.000000)">
                    <polygon id="Fill-2" fill="#00A4FF" fill-rule="nonzero" points="16 34 34 34 34 16 16 16"></polygon>
                    <polygon id="Fill-3" fill="#334966" fill-rule="nonzero" points="26 12 26 14 30.586 14 14 30.586 14 26 12 26 12 32 12 34 14 34 20 34 20 32 15.414 32 32 15.414 32 20 34 20 34 14 34 12 32 12"></polygon>
                    <polygon id="Fill-4" fill="#334966" fill-rule="nonzero" points="32 32 26 32 26 34 32 34 34 34 34 32 34 26 32 26"></polygon>
                    <polygon id="Fill-5" fill="#00A4FF" fill-rule="nonzero" points="14 14 20 14 20 12 14 12 12 12 12 14 12 20 14 20"></polygon>
                    <circle id="Oval-7" stroke="#334966" stroke-width="2" cx="23" cy="23" r="23"></circle>
                </g>
            </g>
        </g>
    </g>
</svg>