<?xml version="1.0" encoding="UTF-8"?>
<svg width="48px" height="48px" viewBox="0 0 48 48" version="1.1" xmlns="http://www.w3.org/2000/svg" xmlns:xlink="http://www.w3.org/1999/xlink">
    <title>010c19faec5c08492fd79847333377a8</title>
    <g id="二期" stroke="none" stroke-width="1" fill="none" fill-rule="evenodd">
        <g id="首页切图" transform="translate(-162.000000, -92.000000)">
            <g id="010c19faec5c08492fd79847333377a8" transform="translate(162.000000, 92.000000)">
                <rect id="Rectangle-Copy" fill="#444444" fill-rule="nonzero" opacity="0" x="0" y="0" width="48" height="48"></rect>
                <g id="Group-15" transform="translate(1.000000, 5.001000)">
                    <polygon id="Fill-1-path" stroke="#334966" stroke-width="2" points="40 0 40 31.999 0 31.999 0 0"></polygon>
                    <g id="Group-14" transform="translate(5.000000, 4.999000)" fill-rule="nonzero">
                        <path d="M5,1 C6.65675,1 8,2.34325 8,4 C8,5.65675 6.65675,7 5,7 C3.34325,7 2,5.65675 2,4 C2,2.34325 3.34325,1 5,1" id="Fill-8" fill="#00A4FF"></path>
                        <rect id="矩形" fill="#00A4FF" x="2" y="11" width="25" height="3"></rect>
                        <rect id="矩形" fill="#00A4FF" x="2" y="17" width="25" height="3"></rect>
                        <polygon id="Fill-10" fill="#00A4FF" points="36 17 36 28 2 28 2 32 40 32 40 17"></polygon>
                        <polygon id="Fill-12" fill="#334966" points="36 0 36 2 40 2 40 32 2 32 2 28 0 28 0 34 42 34 42 0"></polygon>
                    </g>
                </g>
            </g>
        </g>
    </g>
</svg>