<?xml version="1.0" encoding="UTF-8"?>
<svg width="50px" height="50px" viewBox="0 0 50 50" version="1.1" xmlns="http://www.w3.org/2000/svg" xmlns:xlink="http://www.w3.org/1999/xlink">
    <title>7</title>
    <g id="二期" stroke="none" stroke-width="1" fill="none" fill-rule="evenodd">
        <g id="产品切图" transform="translate(-60.000000, -413.000000)" fill-rule="nonzero">
            <g id="7" transform="translate(60.000000, 413.000000)">
                <g id="b89652239b430aec62ed813eaef66be2" transform="translate(1.000000, 1.000000)">
                    <rect id="Rectangle-Copy" fill="#444444" opacity="0" x="0" y="0" width="48" height="48"></rect>
                    <g id="Group" transform="translate(0.000000, 3.000000)">
                        <path d="M2,2 L2,34 L46,34 L46,2 L2,2 Z M0,0 L48,0 L48,36 L0,36 L0,0 Z" id="Rectangle-16" fill="#334966"></path>
                        <rect id="Rectangle-17" fill="#334966" x="12" y="40" width="24" height="2"></rect>
                        <rect id="Rectangle-73" fill="#334966" x="20" y="34" width="2" height="8"></rect>
                        <rect id="Rectangle-73-Copy" fill="#334966" x="26" y="34" width="2" height="8"></rect>
                        <rect id="Rectangle-74" fill="#00A4FF" transform="translate(16.000000, 20.000000) scale(-1, 1) rotate(-180.000000) translate(-16.000000, -20.000000) " x="12" y="11" width="8" height="18"></rect>
                        <rect id="Rectangle-74-Copy" fill="#00A4FF" transform="translate(32.000000, 18.000000) scale(-1, 1) rotate(-180.000000) translate(-32.000000, -18.000000) " x="28" y="7" width="8" height="22"></rect>
                        <polygon id="Path-5" fill="#334966" points="9.70710678 27.7071068 8.29289322 26.2928932 20.6633839 13.9224025 31.6633839 15.9224025 38.2928932 9.29289322 39.7071068 10.7071068 32.3366161 18.0775975 21.3366161 16.0775975"></polygon>
                        <polygon id="Path-5-Copy" fill="#334966" points="23.8857272 28.1892066 8.37530495 15.7808688 9.62469505 14.2191312 24.1142728 25.8107934 31.6822148 21.8405306 39.1548843 23.0120674 38.8451157 24.9879326 32.0257539 23.918819"></polygon>
                    </g>
                </g>
            </g>
        </g>
    </g>
</svg>