<?xml version="1.0" encoding="UTF-8"?>
<svg width="50px" height="50px" viewBox="0 0 50 50" version="1.1" xmlns="http://www.w3.org/2000/svg" xmlns:xlink="http://www.w3.org/1999/xlink">
    <title>15</title>
    <defs>
        <polygon id="path-1" points="-3.33066907e-16 -3.88578059e-16 22.611 -3.88578059e-16 22.611 23.6427 -3.33066907e-16 23.6427"></polygon>
        <polygon id="path-3" points="0 1.49880108e-15 44 1.49880108e-15 44 39.9996 0 39.9996"></polygon>
    </defs>
    <g id="二期" stroke="none" stroke-width="1" fill="none" fill-rule="evenodd">
        <g id="产品切图" transform="translate(-268.000000, -513.000000)">
            <g id="15" transform="translate(268.000000, 513.000000)">
                <g id="64fb2c5037275b0e10227f5d734e91f2" transform="translate(1.000000, 1.000000)">
                    <rect id="Rectangle-Copy" fill="#444444" fill-rule="nonzero" opacity="0" x="0" y="0" width="48" height="48"></rect>
                    <g id="1547107113803-48x48" transform="translate(0.000000, 3.000400)">
                        <polygon id="Fill-1" fill="#334966" fill-rule="nonzero" points="28.6572 13.9996 23.0002 19.6566 21.5862 18.2426 25.8282 13.9996 21.5862 9.7566 23.0002 8.3426"></polygon>
                        <polygon id="Fill-2" fill="#334966" fill-rule="nonzero" points="12.6567 8.3429 14.0717 9.7569 9.8287 13.9999 14.0717 18.2419 12.6567 19.6559 6.9997 13.9999"></polygon>
                        <polygon id="Fill-3" fill="#00A4FF" fill-rule="nonzero" points="14.7896 19.3492 19.0046 8.1142 20.8776 8.8162 16.6626 20.0522"></polygon>
                        <polygon id="Fill-4" fill="#00A4FF" fill-rule="nonzero" points="7 34.02 41 34.02 41 25.02 7 25.02"></polygon>
                        <g id="Group-13" transform="translate(0.000000, -0.000000)">
                            <g id="Fill-5-Clipped" transform="translate(24.694200, 20.178300)">
                                <mask id="mask-2" fill="white">
                                    <use xlink:href="#path-1"></use>
                                </mask>
                                <g id="path-1"></g>
                                <path d="M11.256,-3.88578059e-16 C10.428,-3.88578059e-16 9.6,0.077 8.782,0.23 L8.277,0.333 L7.166,3.399 C6.985,3.95 6.4,4.335 5.844,4.335 C5.779,4.335 5.716,4.33 5.653,4.319 L2.624,3.809 L2.221,4.218 C1.312,5.342 0.706,6.569 0.201,7.898 L-3.33066907e-16,8.409 L2.019,10.863 C2.422,11.375 2.422,12.192 2.019,12.704 L-3.33066907e-16,15.156 L0.201,15.669 C0.4,16.392 0.705,17.081 1.11,17.712 C1.413,18.326 1.817,18.838 2.221,19.349 L2.624,19.758 L5.753,19.246 C5.816,19.236 5.879,19.23 5.943,19.23 C6.499,19.23 7.087,19.617 7.268,20.167 L8.277,23.234 L8.883,23.336 C9.712,23.54 10.56,23.643 11.406,23.643 C12.254,23.643 13.102,23.54 13.931,23.336 L14.436,23.233 L15.445,20.167 C15.626,19.617 16.213,19.23 16.77,19.23 C16.833,19.23 16.897,19.236 16.958,19.246 L19.987,19.758 L20.391,19.247 C21.198,18.224 21.905,16.997 22.31,15.669 L22.511,15.156 L20.593,12.806 C20.19,12.295 20.19,11.477 20.593,10.966 L22.611,8.409 L22.411,7.898 L22.41,7.898 C22.211,7.207 21.905,6.552 21.502,5.956 C21.198,5.342 20.795,4.831 20.391,4.319 L19.987,3.911 L16.859,4.319 C16.252,4.319 15.545,3.911 15.344,3.297 L14.334,0.333 L13.729,0.23 C12.911,0.077 12.083,-3.88578059e-16 11.256,-3.88578059e-16 M11.256,2 C11.776,2 12.297,2.036 12.826,2.109 L13.444,3.922 C13.901,5.311 15.336,6.319 16.859,6.319 L16.988,6.319 L17.116,6.303 L19.19,6.032 C19.396,6.307 19.573,6.568 19.709,6.842 L19.77,6.964 L19.846,7.077 C20.051,7.381 20.22,7.704 20.352,8.045 L19.025,9.726 C18.051,10.957 18.051,12.814 19.043,14.069 L20.242,15.539 C19.983,16.229 19.608,16.925 19.138,17.586 L17.289,17.273 C17.119,17.245 16.944,17.23 16.77,17.23 C15.319,17.23 13.993,18.182 13.545,19.542 L12.897,21.512 C12.405,21.599 11.906,21.643 11.406,21.643 C10.871,21.643 10.335,21.592 9.81,21.492 L9.168,19.542 C8.72,18.182 7.394,17.231 5.943,17.23 C5.768,17.23 5.593,17.245 5.431,17.272 L3.399,17.604 C3.204,17.345 3.032,17.088 2.902,16.827 L2.854,16.728 L2.794,16.635 C2.577,16.295 2.399,15.933 2.262,15.555 L3.589,13.942 C4.56,12.712 4.56,10.855 3.563,9.593 L2.294,8.05 C2.635,7.23 2.993,6.56 3.405,5.969 L5.319,6.291 C5.491,6.32 5.667,6.335 5.844,6.335 C7.281,6.335 8.596,5.401 9.055,4.06 L9.766,2.098 C10.26,2.032 10.759,2 11.256,2" id="Fill-5" fill="#344966" fill-rule="nonzero" mask="url(#mask-2)"></path>
                            </g>
                            <path d="M36,27.9996 C33.791,27.9996 32,29.7906 32,31.9996 C32,34.2086 33.791,35.9996 36,35.9996 C38.209,35.9996 40,34.2086 40,31.9996 C40,29.7906 38.209,27.9996 36,27.9996 M36,29.9996 C37.103,29.9996 38,30.8966 38,31.9996 C38,33.1026 37.103,33.9996 36,33.9996 C34.897,33.9996 34,33.1026 34,31.9996 C34,30.8966 34.897,29.9996 36,29.9996" id="Fill-8" fill="#344966" fill-rule="nonzero"></path>
                            <g id="Fill-10-Clipped">
                                <mask id="mask-4" fill="white">
                                    <use xlink:href="#path-3"></use>
                                </mask>
                                <g id="path-3"></g>
                                <polygon id="Fill-10" fill="#334966" fill-rule="nonzero" mask="url(#mask-4)" points="23 37.9996 2 37.9996 2 1.9996 42 1.9996 42 21.9996 44 21.9996 44 -0.0004 0 -0.0004 0 39.9996 23 39.9996"></polygon>
                            </g>
                        </g>
                    </g>
                </g>
            </g>
        </g>
    </g>
</svg>