<?xml version="1.0" encoding="UTF-8"?>
<svg width="50px" height="50px" viewBox="0 0 50 50" version="1.1" xmlns="http://www.w3.org/2000/svg" xmlns:xlink="http://www.w3.org/1999/xlink">
    <title>14</title>
    <g id="二期" stroke="none" stroke-width="1" fill="none" fill-rule="evenodd">
        <g id="产品切图" transform="translate(-164.000000, -513.000000)">
            <g id="14" transform="translate(164.000000, 513.000000)">
                <g id="2ee88096c448e46170fa6971a4fe258a" transform="translate(4.000000, 2.000000)">
                    <polygon id="Polygon-3" stroke="#334966" stroke-width="2" points="21 1.15175111 1 12.5803225 1 35.4196775 21 46.8482489 41 35.4196775 41 12.5803225"></polygon>
                    <polygon id="Polygon-3" fill="#00A4FF" fill-rule="nonzero" points="21 11 32 17.5 32 30.5 21 37 10 30.5 10 17.5"></polygon>
                    <path d="M41.0077221,12.2635137 L40,12.8393549 L40,13.1606451 L41.0077221,13.7364863 L41.4285714,13 L41.0077221,12.2635137 Z M39.7188711,13 L21,2.30350221 L2.28112887,13 L21,23.6964978 L39.7188711,13 Z M2,13.1606451 L2,12.8393549 L0.99227788,12.2635137 L0.57142857,13 L0.99227788,13.7364863 L2,13.1606451 Z M22,25.4285714 L22,47 L20,47 L20,25.4285714 L0,14 L0,12 L21,0 L42,12 L42,14 L22,25.4285714 Z" id="Combined-Shape" fill="#334966" fill-rule="nonzero"></path>
                </g>
            </g>
        </g>
    </g>
</svg>